<?xml version="1.0" encoding="utf-8"?>
<!-- Generator: Adobe Illustrator 16.0.0, SVG Export Plug-In . SVG Version: 6.00 Build 0)  -->
<!DOCTYPE svg PUBLIC "-//W3C//DTD SVG 1.1//EN" "http://www.w3.org/Graphics/SVG/1.1/DTD/svg11.dtd">
<svg version="1.1" id="Layer_1" xmlns="http://www.w3.org/2000/svg" xmlns:xlink="http://www.w3.org/1999/xlink" x="0px" y="0px"
	 width="30px" height="31px" viewBox="0 0 30 31" enable-background="new 0 0 30 31" xml:space="preserve">
<path d="M15.057,12.782c3.566,0,6.458-2.892,6.458-6.458s-2.893-6.458-6.458-6.458c-3.566,0-6.458,2.892-6.458,6.458
	S11.491,12.782,15.057,12.782z M9.375,6.103V4.639c0-0.417,0.781-0.889,1.198-0.889h3.162c0.343,0,0.841,0,1.01,1h1.043
	c0.095-1,0.391-1,0.734-1h3.162c0.418,0,0.691,0.472,0.691,0.889v1.464c0,0.417-0.273,0.647-0.691,0.647h-3.162
	c-0.366,0-0.679-1-0.753-1h-0.99c-0.133,0-0.678,1-1.043,1h-3.162C10.156,6.75,9.375,6.52,9.375,6.103z M15,14.75
	c0,0-4.007,1.624-5.423,3.039c-1.416,1.416,3.099,1.276,3.099,1.276l2.241,8.053l2.259-8.132c0,0,4.514,0.146,3.098-1.27
	c-1.256-1.255-4.543-2.967-5.272-2.967H15z M6.871,17.686C3.192,20.752,0.75,24.75,0.65,30.75h15.367l-4.788-10.998
	C11.229,19.752,5.863,19.393,6.871,17.686z M22.875,17.471c1.432,1.834-4.254,2.414-4.254,2.414l-3.459,7.872l0.873,2.993H29.35
	C29.248,24.75,26.697,20.516,22.875,17.471z"/>
</svg>
