<?xml version="1.0" encoding="utf-8"?>
<!-- Generator: Adobe Illustrator 16.0.0, SVG Export Plug-In . SVG Version: 6.00 Build 0)  -->
<!DOCTYPE svg PUBLIC "-//W3C//DTD SVG 1.1//EN" "http://www.w3.org/Graphics/SVG/1.1/DTD/svg11.dtd">
<svg version="1.1" id="Layer_1" xmlns="http://www.w3.org/2000/svg" xmlns:xlink="http://www.w3.org/1999/xlink" x="0px" y="0px"
	 width="30px" height="31px" viewBox="0 0 30 31" enable-background="new 0 0 30 31" xml:space="preserve">
<g>
	<path d="M21.855-0.25H2.375v31h25V4.229L21.855-0.25z M5.649,4.75h6.694l0,0H5.649L5.649,4.75z M17.375,7.75H5.649h0.726
		 M6.375,9.75h5v1h-5V9.75z M6.375,11.75h6v1h-6V11.75z M24.375,25.75h-18v-1h18V25.75z M24.375,23.75h-18v-1h18V23.75z
		 M24.375,22.75h-18v-3h18V22.75z M24.375,18.75h-18v-2h18V18.75z M24.375,16.75h-18v-1h18V16.75z M24.375,13.75h-18v-1h18V13.75z"
		/>
</g>
</svg>
