<svg version="1.1" id="Layer_1" xmlns="http://www.w3.org/2000/svg" xmlns:xlink="http://www.w3.org/1999/xlink" x="0px" y="0px"
	 width="30px" height="31px" viewBox="0 0 30 31" enable-background="new 0 0 30 31" xml:space="preserve">
<g>
	<path fill="white" d="M15.001,15.016c-7.656,0-13.876,7.695-14.036,16.005h28.07C28.877,22.711,22.656,15.016,15.001,15.016z M15.05,15.835
		l1.264,1.263l-1.264,1.264l-1.265-1.264L15.05,15.835z M15.05,29.852l-1.58-1.58l1.58-9.401l1.58,9.401L15.05,29.852z"/>
	<path fill="white" d="M15.001-0.022c-3.489,0-6.315,2.828-6.315,6.316c0,3.488,2.826,6.316,6.315,6.316c3.488,0,6.315-2.828,6.315-6.316
		C21.316,2.806,18.489-0.022,15.001-0.022z M19.525,7.938h-3.094c-0.355,0-0.662-1.847-0.734-1.847h-0.971
		c-0.13,0-0.662,1.847-1.019,1.847h-3.093c-0.408,0-0.552-1.453-0.552-1.86V4.646c0-0.408,0.144-0.401,0.552-0.401h3.093
		c0.335,0,0.822,0,0.986,0.923h1.021c0.094-0.923,0.382-0.923,0.717-0.923h3.094c0.408,0,0.695-0.006,0.695,0.401v1.432
		C20.221,6.485,19.934,7.938,19.525,7.938z"/>
</g>
</svg>
