<?xml version="1.0" encoding="utf-8"?>
<!-- Generator: Adobe Illustrator 16.0.0, SVG Export Plug-In . SVG Version: 6.00 Build 0)  -->
<!DOCTYPE svg PUBLIC "-//W3C//DTD SVG 1.1//EN" "http://www.w3.org/Graphics/SVG/1.1/DTD/svg11.dtd">
<svg version="1.1" id="Layer_1" xmlns="http://www.w3.org/2000/svg" xmlns:xlink="http://www.w3.org/1999/xlink" x="0px" y="0px"
	 width="30px" height="31px" viewBox="0 0 30 31" enable-background="new 0 0 30 31" xml:space="preserve">
<path d="M14.938,0.127c-4.953,0-8.967,4.017-8.967,8.968c0,0.813,0.117,1.597,0.321,2.349l8.646,19.217l8.647-19.217
	c0.201-0.752,0.32-1.535,0.32-2.349C23.905,4.144,19.889,0.127,14.938,0.127z M15.15,12.725c-2.357,0-4.27-1.912-4.27-4.271
	c0-2.357,1.913-4.27,4.27-4.27c2.359,0,4.27,1.913,4.27,4.27C19.42,10.813,17.509,12.725,15.15,12.725z"/>
</svg>
