<?xml version="1.0" encoding="utf-8"?>
<!-- Generator: Adobe Illustrator 16.0.0, SVG Export Plug-In . SVG Version: 6.00 Build 0)  -->
<!DOCTYPE svg PUBLIC "-//W3C//DTD SVG 1.1//EN" "http://www.w3.org/Graphics/SVG/1.1/DTD/svg11.dtd">
<svg version="1.1" id="Layer_1" xmlns="http://www.w3.org/2000/svg" xmlns:xlink="http://www.w3.org/1999/xlink" x="0px" y="0px"
	 width="30px" height="31px" viewBox="0 0 30 31" enable-background="new 0 0 30 31" xml:space="preserve">
<path d="M14.938,0.562C6.687,0.562,0,7.25,0,15.5c0,8.25,6.687,14.938,14.938,14.938c8.249,0,14.938-6.688,14.938-14.938
	C29.875,7.25,23.187,0.562,14.938,0.562z M19.793,18.75h-6.18c-0.731,0-2.238-1.195-2.238-1.926V7.113c0-0.731,1.269-1.324,2-1.324
	s2,0.593,2,1.324v7.637h4.418c0.732,0,1.324,1.269,1.324,2S20.525,18.75,19.793,18.75z"/>
</svg>
