<?xml version="1.0" encoding="utf-8"?>
<!-- Generator: Adobe Illustrator 16.0.0, SVG Export Plug-In . SVG Version: 6.00 Build 0)  -->
<!DOCTYPE svg PUBLIC "-//W3C//DTD SVG 1.1//EN" "http://www.w3.org/Graphics/SVG/1.1/DTD/svg11.dtd">
<svg version="1.1" id="Layer_1" xmlns="http://www.w3.org/2000/svg" xmlns:xlink="http://www.w3.org/1999/xlink" x="0px" y="0px"
	 width="30px" height="31px" viewBox="0 0 30 31" enable-background="new 0 0 30 31" xml:space="preserve">
<path d="M17.862,23.525c-0.829,0-1.657-0.348-2.019-0.535l-0.414,1.524c0.508,0.321,1.457,0.614,2.58,0.614
	c2.204,0,3.655-1.123,3.655-2.66c0-1.136-0.562-1.924-1.783-2.112V20.33c1.221-0.373,1.49-1.096,1.49-2.019
	c0-1.188-1.081-2.164-2.938-2.164c-1.123,0-2.191,0.32-2.711,0.653l0.401,1.471c0.362-0.213,1.104-0.52,1.812-0.52
	c0.855,0,1.279,0.439,1.279,0.963c0,0.735-0.872,1.057-1.554,1.057h-0.83v1.222h0.871c0.895,0,1.752,0.449,1.752,1.305
	C19.454,22.954,18.917,23.525,17.862,23.525z M9.508,1.135c0-0.493-0.665-0.89-1.485-0.89H7.941c-0.82,0-1.484,0.397-1.484,0.89
	v3.71c0,0.493,0.664,0.893,1.484,0.893h0.082c0.82,0,1.485-0.4,1.485-0.893V1.135z M23.543,1.135c0-0.493-0.665-0.89-1.485-0.89
	h-0.08c-0.82,0-1.485,0.397-1.485,0.89v3.71c0,0.493,0.665,0.893,1.485,0.893h0.08c0.82,0,1.485-0.4,1.485-0.893V1.135z
	 M11.178,25.129c2.22,0,3.302-1.845,3.302-4.53c0-2.38-0.909-4.451-3.234-4.451c-2.246,0-3.315,1.991-3.315,4.504
	C7.944,23.11,8.933,25.129,11.178,25.129z M11.218,17.685c0.816,0,1.23,1.015,1.23,2.94c0,1.979-0.428,2.968-1.217,2.968
	s-1.27-0.949-1.256-2.941C9.962,18.633,10.47,17.685,11.218,17.685z M24.765,2.686v2.958c0,0.628-0.544,1.313-1.172,1.313h-3.372
	c-0.628,0-0.948-0.686-0.948-1.313V2.686h-7.934v2.958c0,0.628-0.783,1.313-1.41,1.313H6.556c-0.628,0-1.32-0.686-1.32-1.313V2.686
	H0.965v5.491h28.07V2.686H24.765z M0.965,26.013c0,2.584,2.095,4.743,4.678,4.743h18.712c2.585,0,4.68-2.159,4.68-4.743V10.618
	H0.965V26.013z M3.406,12.449h22.577v12.479c0,2.068-1.446,3.388-3.514,3.388H7.501c-2.067,0-4.095-1.319-4.095-3.388V12.449z"/>
</svg>
