<?xml version="1.0" encoding="utf-8"?>
<!-- Generator: Adobe Illustrator 16.0.4, SVG Export Plug-In . SVG Version: 6.00 Build 0)  -->
<!DOCTYPE svg PUBLIC "-//W3C//DTD SVG 1.1//EN" "http://www.w3.org/Graphics/SVG/1.1/DTD/svg11.dtd">
<svg version="1.1" id="Layer_1" xmlns="http://www.w3.org/2000/svg" xmlns:xlink="http://www.w3.org/1999/xlink" x="0px" y="0px"
	 width="1076.709px" height="1076.709px" viewBox="0 0 1076.709 1076.709" enable-background="new 0 0 1076.709 1076.709"
	 xml:space="preserve">
<polygon fill="#292930" points="656.369,708.918 698.574,671.894 929.287,907.879 909.041,928.146 "/>
<polygon fill="#5B9AA9" points="905.324,147.207 921.883,163.493 710.512,407.207 656.369,367.207 "/>
<polygon fill="#068DAA" points="155.767,160.156 180.075,137.025 428.575,395.207 374.012,428.89 "/>
<polygon fill="#292930" points="167.672,928.146 141.365,901.379 379.602,608.256 428.575,708.918 "/>
<g>
	<path fill="#5B9AA9" d="M541.345,540.078l378.222,378.221c209.139-209.468,208.8-548.049,0.347-756.789L541.345,540.078z"/>
	<path fill="#5B9AA9" d="M541.345,540.078l378.222,378.221c209.139-209.468,208.8-548.049,0.347-756.789L541.345,540.078z"/>
	<path fill="#292930" d="M538.517,542.906l378.22,378.221c-208.761,208.433-547.602,208.354-756.342-0.099L538.517,542.906z"/>
	<path fill="#5B9AA9" d="M537.103,535.835L158.595,157.328c209.469-209.139,548.335-208.514,757.076-0.061L537.103,535.835z"/>
	<path fill="#068DAA" d="M537.103,535.835L158.595,157.328c209.469-209.139,548.335-208.514,757.076-0.061L537.103,535.835z"/>
	<path d="M534.275,538.664L155.767,160.156C-52.665,368.918-52.3,708.045,156.152,916.785L534.275,538.664z"/>
</g>
<g>
	<path fill="#FFFFFF" d="M32.989,515.115c0-1.525,0.222-2.815,0.665-3.871c0.442-1.056,1.006-1.965,1.69-2.728
		c0.684-0.763,1.43-1.417,2.239-1.965c0.81-0.547,1.569-1.061,2.281-1.539c0.711-0.479,1.328-0.963,1.853-1.452
		c0.523-0.489,0.824-1.065,0.903-1.73l0.534-4.604h3.926l0.088,5.015v0.352c0,0.88-0.227,1.628-0.678,2.243
		c-0.451,0.616-1.021,1.179-1.707,1.687c-0.688,0.509-1.429,0.997-2.223,1.467c-0.796,0.469-1.543,1.002-2.242,1.598
		c-0.699,0.597-1.275,1.296-1.729,2.098c-0.453,0.801-0.68,1.798-0.68,2.99c0,0.88,0.175,1.662,0.524,2.347
		c0.35,0.684,0.819,1.271,1.409,1.76c0.59,0.488,1.289,0.864,2.099,1.129c0.81,0.264,1.674,0.396,2.594,0.396
		c1.211,0,2.256-0.151,3.135-0.454c0.879-0.304,1.616-0.636,2.212-0.997c0.596-0.362,1.084-0.689,1.465-0.982
		c0.381-0.294,0.688-0.44,0.923-0.44c0.273,0,0.498,0.059,0.674,0.177c0.176,0.116,0.332,0.282,0.469,0.498l1.406,2.258
		c-0.625,0.581-1.309,1.129-2.051,1.644s-1.553,0.971-2.432,1.368s-1.841,0.713-2.886,0.945s-2.174,0.35-3.386,0.35
		c-1.587,0-3.057-0.225-4.407-0.672c-1.353-0.449-2.522-1.077-3.512-1.885c-0.989-0.809-1.763-1.803-2.321-2.98
		C33.267,517.954,32.989,516.615,32.989,515.115z M41.338,486.878c0-0.527,0.097-1.016,0.291-1.465
		c0.193-0.449,0.464-0.845,0.812-1.187c0.347-0.342,0.761-0.615,1.24-0.82s0.995-0.308,1.546-0.308c0.524,0,1.01,0.103,1.457,0.308
		c0.446,0.205,0.84,0.479,1.18,0.82c0.339,0.342,0.606,0.742,0.801,1.201s0.291,0.942,0.291,1.45c0,0.547-0.097,1.045-0.291,1.494
		s-0.462,0.845-0.801,1.187c-0.34,0.342-0.738,0.605-1.194,0.791c-0.457,0.186-0.938,0.278-1.442,0.278
		c-0.551,0-1.066-0.093-1.546-0.278s-0.894-0.449-1.24-0.791c-0.348-0.342-0.618-0.737-0.812-1.187
		C41.435,487.923,41.338,487.425,41.338,486.878z"/>
	<path fill="#FFFFFF" d="M58.301,492.503c0-3.223,0.513-6.182,1.538-8.877s2.466-5.015,4.321-6.958s4.082-3.457,6.68-4.541
		s5.479-1.626,8.643-1.626c3.159,0,6.042,0.542,8.646,1.626s4.837,2.598,6.699,4.541s3.301,4.263,4.315,6.958
		s1.521,5.654,1.521,8.877c0,2.012-0.205,3.931-0.613,5.757c-0.409,1.826-1.003,3.521-1.781,5.083
		c-0.779,1.562-1.723,2.983-2.833,4.263c-1.109,1.279-2.365,2.397-3.767,3.354l11.045,11.895h-4.805
		c-0.723,0-1.362-0.098-1.919-0.293s-1.069-0.547-1.538-1.055l-7.559-8.232c-1.133,0.352-2.314,0.63-3.545,0.835
		s-2.52,0.308-3.867,0.308c-3.164,0-6.045-0.532-8.643-1.597s-4.824-2.568-6.68-4.512s-3.296-4.258-4.321-6.943
		S58.301,495.726,58.301,492.503z M64.249,492.503c0,2.637,0.361,5,1.084,7.09s1.748,3.857,3.076,5.303s2.93,2.554,4.805,3.325
		s3.965,1.157,6.27,1.157c2.324,0,4.424-0.386,6.299-1.157s3.477-1.88,4.805-3.325s2.349-3.213,3.062-5.303s1.069-4.453,1.069-7.09
		s-0.356-5.005-1.069-7.104s-1.733-3.877-3.062-5.332s-2.93-2.573-4.805-3.354s-3.975-1.172-6.299-1.172
		c-2.305,0-4.395,0.391-6.27,1.172s-3.477,1.899-4.805,3.354s-2.354,3.232-3.076,5.332S64.249,489.866,64.249,492.503z"/>
	<path fill="#FFFFFF" d="M107.081,502.962v-19.365h5.332v19.408c0,2.31,0.532,4.096,1.597,5.358s2.661,1.894,4.79,1.894
		c1.562,0,3.032-0.372,4.409-1.115c1.377-0.744,2.651-1.771,3.823-3.083v-22.462h5.332v30.381H129.2
		c-0.762,0-1.25-0.366-1.465-1.099l-0.41-3.238c-1.328,1.447-2.808,2.61-4.438,3.488s-3.511,1.317-5.64,1.317
		c-1.66,0-3.125-0.273-4.395-0.82s-2.334-1.318-3.193-2.314s-1.504-2.207-1.934-3.633S107.081,504.681,107.081,502.962z"/>
	<path fill="#FFFFFF" d="M138.985,498.122c0-2.124,0.323-4.102,0.97-5.934c0.646-1.831,1.582-3.419,2.807-4.764
		c1.224-1.345,2.718-2.401,4.48-3.172c1.764-0.77,3.752-1.154,5.966-1.154c1.811,0,3.484,0.308,5.021,0.921
		c1.538,0.613,2.866,1.495,3.985,2.644c1.119,1.149,1.99,2.566,2.613,4.251s0.935,3.598,0.935,5.74c0,0.855-0.088,1.427-0.264,1.716
		c-0.175,0.288-0.516,0.432-1.021,0.432h-20.16c0.039,1.914,0.297,3.584,0.775,5.01c0.477,1.426,1.135,2.612,1.974,3.56
		s1.838,1.655,2.998,2.124c1.159,0.469,2.461,0.703,3.904,0.703c1.344,0,2.498-0.156,3.462-0.469s1.792-0.649,2.483-1.011
		s1.271-0.693,1.739-0.996c0.467-0.303,0.876-0.454,1.227-0.454c0.446,0,0.786,0.166,1.02,0.498l1.484,1.963
		c-0.661,0.801-1.45,1.494-2.365,2.08c-0.914,0.586-1.897,1.069-2.948,1.45c-1.052,0.381-2.132,0.664-3.241,0.85
		s-2.219,0.278-3.328,0.278c-2.116,0-4.056-0.353-5.818-1.057c-1.763-0.705-3.291-1.747-4.584-3.127s-2.302-3.082-3.026-5.108
		S138.985,500.745,138.985,498.122z M144.493,495.462h16.494c0-1.238-0.166-2.38-0.497-3.422s-0.829-1.942-1.491-2.699
		c-0.663-0.757-1.473-1.342-2.428-1.755s-2.037-0.62-3.246-0.62c-2.573,0-4.597,0.753-6.068,2.257
		C145.784,490.728,144.863,492.807,144.493,495.462z M150.02,479.085l4.414-7.266c0.272-0.469,0.575-0.806,0.906-1.011
		s0.818-0.308,1.462-0.308h5.203l-6.957,7.734c-0.273,0.293-0.546,0.508-0.819,0.645c-0.272,0.137-0.624,0.205-1.052,0.205H150.02z"
		/>
	<path fill="#FFFFFF" d="M43.213,570.743c0-2.378,0.337-4.532,1.011-6.462c0.674-1.931,1.641-3.572,2.9-4.928
		c1.26-1.354,2.783-2.402,4.57-3.144c1.787-0.74,3.794-1.111,6.021-1.111c2.222,0,4.225,0.371,6.008,1.111
		c1.784,0.741,3.3,1.789,4.547,3.144c1.247,1.355,2.207,2.997,2.88,4.928c0.672,1.93,1.009,4.084,1.009,6.462
		c0,2.407-0.337,4.569-1.009,6.487c-0.673,1.917-1.633,3.562-2.88,4.931c-1.247,1.37-2.763,2.417-4.547,3.141
		c-1.783,0.724-3.786,1.086-6.008,1.086c-2.227,0-4.233-0.362-6.021-1.086s-3.311-1.771-4.57-3.141
		c-1.26-1.369-2.227-3.014-2.9-4.931C43.55,575.312,43.213,573.15,43.213,570.743z M48.721,570.772c0,1.797,0.186,3.403,0.557,4.819
		s0.933,2.612,1.685,3.589s1.685,1.724,2.798,2.241s2.432,0.776,3.955,0.776c3.008,0,5.249-1.006,6.724-3.018
		s2.212-4.814,2.212-8.408c0-3.613-0.737-6.431-2.212-8.452s-3.716-3.032-6.724-3.032c-1.523,0-2.842,0.259-3.955,0.776
		s-2.046,1.265-2.798,2.241s-1.313,2.183-1.685,3.618S48.721,568.976,48.721,570.772z"/>
	<path fill="#FFFFFF" d="M74.004,555.597h4.629c0.469,0,0.83,0.112,1.084,0.337s0.439,0.483,0.557,0.776l8.145,19.131
		c0.176,0.449,0.327,0.889,0.454,1.318s0.249,0.879,0.366,1.348c0.137-0.469,0.273-0.923,0.41-1.362s0.293-0.884,0.469-1.333
		l7.91-19.102c0.117-0.312,0.317-0.576,0.601-0.791s0.601-0.322,0.952-0.322h4.248l-16.934,39.346
		c-0.176,0.391-0.4,0.708-0.674,0.952s-0.693,0.366-1.26,0.366h-3.955l5.537-12.041L74.004,555.597z"/>
	<path fill="#FFFFFF" d="M105.733,570.157c0-2.129,0.323-4.111,0.97-5.947s1.582-3.428,2.807-4.775
		c1.224-1.348,2.718-2.407,4.48-3.179c1.764-0.771,3.752-1.157,5.966-1.157c1.811,0,3.484,0.308,5.021,0.923
		c1.538,0.615,2.866,1.499,3.985,2.651s1.99,2.573,2.613,4.263s0.935,3.608,0.935,5.757c0,0.84-0.088,1.401-0.264,1.685
		c-0.175,0.283-0.516,0.425-1.021,0.425h-20.16c0.039,1.914,0.297,3.584,0.775,5.01c0.477,1.426,1.135,2.612,1.974,3.56
		s1.838,1.655,2.998,2.124c1.159,0.469,2.461,0.703,3.904,0.703c1.344,0,2.498-0.156,3.462-0.469s1.792-0.649,2.483-1.011
		s1.271-0.693,1.739-0.996c0.467-0.303,0.876-0.454,1.227-0.454c0.446,0,0.786,0.166,1.02,0.498l1.484,1.963
		c-0.661,0.801-1.45,1.494-2.365,2.08c-0.914,0.586-1.897,1.069-2.948,1.45c-1.052,0.381-2.132,0.664-3.241,0.85
		s-2.219,0.278-3.328,0.278c-2.116,0-4.056-0.352-5.818-1.055s-3.291-1.743-4.584-3.12s-2.302-3.076-3.026-5.098
		S105.733,572.774,105.733,570.157z M111.241,567.462h16.494c0-1.238-0.166-2.38-0.497-3.422s-0.829-1.942-1.491-2.699
		c-0.663-0.757-1.473-1.342-2.428-1.755s-2.037-0.62-3.246-0.62c-2.573,0-4.597,0.753-6.068,2.257
		C112.532,562.728,111.611,564.807,111.241,567.462z"/>
	<path fill="#FFFFFF" d="M136.021,546.808c0.625-0.581,1.309-1.129,2.051-1.644s1.558-0.971,2.446-1.368s1.851-0.713,2.886-0.945
		s2.158-0.35,3.371-0.35c1.578,0,3.045,0.229,4.398,0.688c1.354,0.457,2.519,1.105,3.493,1.942c0.974,0.838,1.738,1.856,2.294,3.054
		c0.555,1.199,0.833,2.548,0.833,4.048c0,1.525-0.221,2.835-0.663,3.93s-0.999,2.058-1.672,2.889
		c-0.672,0.831-1.412,1.554-2.219,2.17c-0.808,0.616-1.567,1.192-2.281,1.729c-0.715,0.538-1.326,1.08-1.835,1.628
		s-0.802,1.144-0.88,1.788l-0.558,4.604h-3.926l-0.088-4.984v-0.323c0-0.84,0.226-1.588,0.677-2.243
		c0.451-0.654,1.026-1.266,1.723-1.832c0.697-0.566,1.438-1.139,2.224-1.716c0.785-0.576,1.521-1.207,2.209-1.892
		c0.688-0.684,1.254-1.466,1.699-2.346c0.445-0.879,0.668-1.926,0.668-3.138c0-0.859-0.174-1.637-0.52-2.331
		c-0.348-0.693-0.813-1.29-1.397-1.789c-0.584-0.498-1.277-0.874-2.08-1.129c-0.803-0.254-1.659-0.381-2.57-0.381
		c-1.211,0-2.256,0.146-3.135,0.439c-0.879,0.294-1.616,0.621-2.212,0.982c-0.596,0.362-1.079,0.694-1.45,0.997
		c-0.371,0.304-0.674,0.455-0.908,0.455c-0.508,0-0.898-0.234-1.172-0.704L136.021,546.808z M141.856,582.667
		c0-0.527,0.093-1.016,0.278-1.465s0.445-0.845,0.777-1.187s0.728-0.615,1.188-0.82s0.943-0.308,1.451-0.308
		c0.552,0,1.067,0.103,1.548,0.308c0.479,0.205,0.898,0.479,1.256,0.82s0.634,0.742,0.828,1.201s0.291,0.942,0.291,1.45
		c0,0.547-0.097,1.045-0.291,1.494s-0.471,0.845-0.828,1.187s-0.776,0.605-1.256,0.791c-0.48,0.186-0.996,0.278-1.548,0.278
		c-0.527,0-1.017-0.093-1.466-0.278s-0.841-0.449-1.173-0.791s-0.592-0.737-0.777-1.187S141.856,583.214,141.856,582.667z"/>
</g>
<g>
	<g opacity="0.1">
		<circle cx="545.533" cy="542.49" r="240.475"/>
	</g>
	<g>
		<circle fill="#CCCCCC" cx="530.533" cy="542.49" r="240.475"/>
	</g>
</g>
<line fill="none" stroke="#FFFFFF" stroke-width="2" stroke-miterlimit="10" x1="289.354" y1="541.354" x2="185.354" y2="541.354"/>
<circle fill="#FFFFFF" cx="185.075" cy="541.707" r="5"/>
<circle fill="#FFFFFF" cx="538.074" cy="885.707" r="5"/>
<g>
	<g>
		<polygon fill="#5B9AA9" points="468.051,581.605 468.978,601.368 519.422,655.354 536.354,655.354 536.354,395.354 
			520.809,395.354 493.507,399.395 482.395,405.814 470.354,408.527 470.354,421.484 458.098,429.374 452.663,439.07 
			441.616,452.027 445.351,498.305 449.83,508.486 441.354,510.338 441.354,518.667 441.354,532.551 444.293,551.062 
			449.926,563.557 451.816,577.44 457.853,583.92 		"/>
		<polygon fill="#5B9AA9" points="536.354,660.354 516.644,660.354 474.03,615.429 469.441,659.216 456.252,681.354 
			536.354,681.354 		"/>
	</g>
	<g>
		<polygon fill="#4F8E99" points="601.331,658.45 593.271,627.917 559.682,660.354 536.354,660.354 536.354,681.354 
			617.991,681.354 		"/>
		<polygon fill="#5B9AA9" points="582.36,395.354 536.354,395.354 536.354,655.354 556.67,655.354 596.819,618.445 606.424,584.354 
			615.215,584.354 620.354,577.902 620.354,565.87 631.354,548.284 631.354,528.386 631.354,510.338 619.787,504.784 
			631.354,475.167 631.354,442.311 617.271,417.674 		"/>
	</g>
</g>
<linearGradient id="SVGID_1_" gradientUnits="userSpaceOnUse" x1="538.3545" y1="537.6533" x2="1076.5869" y2="537.6533">
	<stop  offset="0" style="stop-color:#000000;stop-opacity:0.3"/>
	<stop  offset="1" style="stop-color:#000000;stop-opacity:0"/>
</linearGradient>
<path fill="url(#SVGID_1_)" d="M538.354-0.7v1076.707c297-0.065,538.232-241.069,538.232-538.354S835.354-0.635,538.354-0.7z"/>
<g>
	<path fill="#FFFFFF" d="M895.739,514.115c0-1.525,0.223-2.815,0.666-3.871c0.441-1.056,1.006-1.965,1.689-2.728
		s1.43-1.417,2.24-1.965c0.809-0.547,1.568-1.061,2.281-1.539c0.711-0.479,1.328-0.963,1.852-1.452s0.824-1.065,0.904-1.73
		l0.533-4.604h3.926l0.088,5.015v0.352c0,0.88-0.227,1.628-0.678,2.243c-0.451,0.616-1.02,1.179-1.707,1.687
		c-0.688,0.509-1.428,0.997-2.223,1.467c-0.795,0.469-1.543,1.002-2.242,1.598c-0.699,0.597-1.275,1.296-1.729,2.098
		c-0.453,0.801-0.68,1.798-0.68,2.99c0,0.88,0.176,1.662,0.525,2.347c0.35,0.684,0.818,1.271,1.408,1.76
		c0.59,0.488,1.289,0.864,2.1,1.129c0.809,0.264,1.674,0.396,2.594,0.396c1.211,0,2.256-0.151,3.135-0.454
		c0.879-0.304,1.615-0.636,2.211-0.997c0.596-0.362,1.084-0.689,1.465-0.982c0.381-0.294,0.689-0.44,0.924-0.44
		c0.273,0,0.498,0.059,0.674,0.177c0.176,0.116,0.332,0.282,0.469,0.498l1.406,2.258c-0.625,0.581-1.309,1.129-2.051,1.644
		s-1.553,0.971-2.432,1.368s-1.842,0.713-2.887,0.945s-2.174,0.35-3.385,0.35c-1.588,0-3.057-0.225-4.408-0.672
		c-1.352-0.449-2.521-1.077-3.512-1.885c-0.988-0.809-1.762-1.803-2.32-2.98C896.019,516.954,895.739,515.615,895.739,514.115z
		 M904.089,485.878c0-0.527,0.098-1.016,0.291-1.465s0.465-0.845,0.812-1.187c0.346-0.342,0.76-0.615,1.24-0.82
		c0.479-0.205,0.994-0.308,1.545-0.308c0.525,0,1.01,0.103,1.457,0.308s0.84,0.479,1.18,0.82s0.607,0.742,0.801,1.201
		c0.195,0.459,0.291,0.942,0.291,1.45c0,0.547-0.096,1.045-0.291,1.494c-0.193,0.449-0.461,0.845-0.801,1.187
		s-0.738,0.605-1.193,0.791c-0.457,0.186-0.938,0.278-1.443,0.278c-0.551,0-1.066-0.093-1.545-0.278
		c-0.48-0.186-0.895-0.449-1.24-0.791c-0.348-0.342-0.619-0.737-0.812-1.187S904.089,486.425,904.089,485.878z"/>
	<path fill="#FFFFFF" d="M921.052,491.503c0-3.223,0.514-6.182,1.539-8.877s2.465-5.015,4.32-6.958s4.082-3.457,6.68-4.541
		s5.479-1.626,8.643-1.626c3.16,0,6.043,0.542,8.646,1.626s4.836,2.598,6.699,4.541c1.861,1.943,3.301,4.263,4.314,6.958
		c1.016,2.695,1.521,5.654,1.521,8.877c0,2.012-0.205,3.931-0.613,5.757s-1.002,3.521-1.781,5.083s-1.723,2.983-2.832,4.263
		s-2.365,2.397-3.768,3.354l11.045,11.895h-4.805c-0.723,0-1.361-0.098-1.918-0.293s-1.07-0.547-1.539-1.055l-7.559-8.232
		c-1.133,0.352-2.314,0.63-3.545,0.835s-2.52,0.308-3.867,0.308c-3.164,0-6.045-0.532-8.643-1.597s-4.824-2.568-6.68-4.512
		s-3.295-4.258-4.32-6.943S921.052,494.726,921.052,491.503z M926.999,491.503c0,2.637,0.361,5,1.084,7.09s1.748,3.857,3.076,5.303
		s2.93,2.554,4.805,3.325s3.965,1.157,6.27,1.157c2.324,0,4.424-0.386,6.299-1.157s3.477-1.88,4.805-3.325s2.35-3.213,3.062-5.303
		s1.068-4.453,1.068-7.09s-0.355-5.005-1.068-7.104s-1.734-3.877-3.062-5.332s-2.93-2.573-4.805-3.354s-3.975-1.172-6.299-1.172
		c-2.305,0-4.395,0.391-6.27,1.172s-3.477,1.899-4.805,3.354s-2.354,3.232-3.076,5.332S926.999,488.866,926.999,491.503z"/>
	<path fill="#FFFFFF" d="M969.831,501.962v-19.365h5.332v19.408c0,2.31,0.533,4.096,1.598,5.358s2.66,1.894,4.789,1.894
		c1.562,0,3.033-0.372,4.41-1.115c1.377-0.744,2.65-1.771,3.822-3.083v-22.462h5.332v30.381h-3.164c-0.762,0-1.25-0.366-1.465-1.099
		l-0.41-3.238c-1.328,1.447-2.807,2.61-4.438,3.488s-3.512,1.317-5.641,1.317c-1.66,0-3.125-0.273-4.395-0.82
		s-2.334-1.318-3.193-2.314s-1.504-2.207-1.934-3.633S969.831,503.681,969.831,501.962z"/>
	<path fill="#FFFFFF" d="M1001.735,497.122c0-2.124,0.324-4.102,0.971-5.934c0.646-1.831,1.582-3.419,2.807-4.764
		c1.223-1.345,2.717-2.401,4.48-3.172c1.764-0.77,3.752-1.154,5.965-1.154c1.811,0,3.484,0.308,5.021,0.921
		c1.539,0.613,2.867,1.495,3.986,2.644c1.119,1.149,1.99,2.566,2.613,4.251s0.934,3.598,0.934,5.74c0,0.855-0.088,1.427-0.264,1.716
		c-0.174,0.288-0.516,0.432-1.021,0.432h-20.16c0.039,1.914,0.297,3.584,0.775,5.01c0.477,1.426,1.135,2.612,1.975,3.56
		c0.838,0.947,1.838,1.655,2.998,2.124c1.158,0.469,2.461,0.703,3.904,0.703c1.344,0,2.498-0.156,3.461-0.469
		c0.965-0.312,1.793-0.649,2.484-1.011s1.27-0.693,1.738-0.996c0.467-0.303,0.877-0.454,1.227-0.454c0.447,0,0.787,0.166,1.02,0.498
		l1.484,1.963c-0.66,0.801-1.449,1.494-2.365,2.08c-0.914,0.586-1.896,1.069-2.947,1.45c-1.053,0.381-2.133,0.664-3.242,0.85
		s-2.219,0.278-3.328,0.278c-2.115,0-4.055-0.353-5.818-1.057c-1.762-0.705-3.291-1.747-4.584-3.127s-2.301-3.082-3.025-5.108
		S1001.735,499.745,1001.735,497.122z M1007.243,494.462h16.494c0-1.238-0.166-2.38-0.496-3.422
		c-0.332-1.042-0.83-1.942-1.492-2.699s-1.473-1.342-2.428-1.755s-2.037-0.62-3.246-0.62c-2.572,0-4.596,0.753-6.068,2.257
		C1008.534,489.728,1007.614,491.807,1007.243,494.462z M1012.771,478.085l4.414-7.266c0.273-0.469,0.576-0.806,0.906-1.011
		c0.332-0.205,0.818-0.308,1.463-0.308h5.203l-6.957,7.734c-0.273,0.293-0.547,0.508-0.82,0.645
		c-0.271,0.137-0.623,0.205-1.051,0.205H1012.771z"/>
	<path fill="#FFFFFF" d="M920.599,554.597h4.395c0.43,0,0.781,0.107,1.055,0.322s0.469,0.479,0.586,0.791l7.705,19.541
		c0.273,0.723,0.492,1.445,0.658,2.168s0.318,1.436,0.455,2.139c0.156-0.703,0.326-1.416,0.512-2.139s0.416-1.445,0.689-2.168
		l7.822-19.541c0.117-0.312,0.307-0.576,0.57-0.791s0.602-0.322,1.012-0.322h4.16l-12.393,30.381h-4.834L920.599,554.597z"/>
	<path fill="#FFFFFF" d="M952.21,569.157c0-2.129,0.322-4.111,0.969-5.947s1.582-3.428,2.807-4.775s2.719-2.407,4.48-3.179
		c1.764-0.771,3.752-1.157,5.967-1.157c1.811,0,3.484,0.308,5.021,0.923s2.865,1.499,3.984,2.651s1.99,2.573,2.613,4.263
		s0.936,3.608,0.936,5.757c0,0.84-0.088,1.401-0.264,1.685s-0.516,0.425-1.021,0.425h-20.16c0.039,1.914,0.297,3.584,0.775,5.01
		c0.477,1.426,1.135,2.612,1.973,3.56c0.84,0.947,1.838,1.655,2.998,2.124s2.461,0.703,3.904,0.703c1.344,0,2.498-0.156,3.463-0.469
		c0.963-0.312,1.791-0.649,2.482-1.011s1.271-0.693,1.74-0.996c0.467-0.303,0.875-0.454,1.227-0.454c0.445,0,0.785,0.166,1.02,0.498
		l1.484,1.963c-0.662,0.801-1.451,1.494-2.365,2.08s-1.898,1.069-2.949,1.45s-2.131,0.664-3.24,0.85s-2.219,0.278-3.328,0.278
		c-2.117,0-4.057-0.352-5.818-1.055c-1.764-0.703-3.291-1.743-4.584-3.12s-2.303-3.076-3.027-5.098S952.21,571.774,952.21,569.157z
		 M957.718,566.462h16.494c0-1.238-0.166-2.38-0.498-3.422c-0.33-1.042-0.828-1.942-1.49-2.699
		c-0.664-0.757-1.473-1.342-2.428-1.755s-2.037-0.62-3.246-0.62c-2.574,0-4.598,0.753-6.068,2.257
		C959.009,561.728,958.087,563.807,957.718,566.462z"/>
	<path fill="#FFFFFF" d="M982.497,545.808c0.625-0.581,1.309-1.129,2.051-1.644s1.559-0.971,2.447-1.368s1.85-0.713,2.885-0.945
		s2.158-0.35,3.371-0.35c1.578,0,3.045,0.229,4.398,0.688c1.355,0.457,2.52,1.105,3.494,1.942c0.973,0.838,1.738,1.856,2.293,3.054
		c0.555,1.199,0.834,2.548,0.834,4.048c0,1.525-0.221,2.835-0.664,3.93c-0.441,1.095-0.998,2.058-1.672,2.889
		c-0.672,0.831-1.412,1.554-2.219,2.17s-1.566,1.192-2.281,1.729c-0.715,0.538-1.326,1.08-1.834,1.628
		c-0.51,0.548-0.803,1.144-0.881,1.788l-0.557,4.604h-3.926l-0.088-4.984v-0.323c0-0.84,0.225-1.588,0.676-2.243
		c0.451-0.654,1.027-1.266,1.723-1.832c0.697-0.566,1.439-1.139,2.225-1.716c0.785-0.576,1.521-1.207,2.209-1.892
		c0.688-0.684,1.254-1.466,1.699-2.346c0.445-0.879,0.668-1.926,0.668-3.138c0-0.859-0.174-1.637-0.52-2.331
		c-0.348-0.693-0.814-1.29-1.398-1.789c-0.584-0.498-1.277-0.874-2.08-1.129c-0.803-0.254-1.658-0.381-2.57-0.381
		c-1.211,0-2.256,0.146-3.135,0.439c-0.879,0.294-1.615,0.621-2.211,0.982c-0.596,0.362-1.08,0.694-1.451,0.997
		c-0.371,0.304-0.674,0.455-0.908,0.455c-0.508,0-0.898-0.234-1.172-0.704L982.497,545.808z M988.333,581.667
		c0-0.527,0.092-1.016,0.277-1.465s0.445-0.845,0.777-1.187s0.729-0.615,1.188-0.82c0.461-0.205,0.943-0.308,1.451-0.308
		c0.553,0,1.068,0.103,1.549,0.308c0.479,0.205,0.898,0.479,1.256,0.82s0.633,0.742,0.828,1.201c0.193,0.459,0.291,0.942,0.291,1.45
		c0,0.547-0.098,1.045-0.291,1.494c-0.195,0.449-0.471,0.845-0.828,1.187s-0.777,0.605-1.256,0.791
		c-0.48,0.186-0.996,0.278-1.549,0.278c-0.527,0-1.016-0.093-1.465-0.278s-0.842-0.449-1.174-0.791s-0.592-0.737-0.777-1.187
		S988.333,582.214,988.333,581.667z"/>
</g>
<line fill="none" stroke="#FFFFFF" stroke-width="2" stroke-miterlimit="10" x1="873.354" y1="541.354" x2="771.354" y2="541.354"/>
<circle fill="#FFFFFF" cx="874.074" cy="542.707" r="5"/>
<g>
	<path fill="#FFFFFF" d="M380.506,97.394c0-1.525,0.222-2.815,0.665-3.871c0.442-1.056,1.006-1.965,1.69-2.728
		c0.684-0.763,1.43-1.417,2.239-1.965c0.81-0.547,1.569-1.061,2.281-1.539c0.711-0.479,1.328-0.963,1.853-1.452
		c0.523-0.489,0.824-1.065,0.903-1.73l0.534-4.604h3.926l0.088,5.015v0.352c0,0.88-0.227,1.628-0.678,2.243
		c-0.451,0.616-1.021,1.179-1.707,1.687c-0.688,0.509-1.429,0.997-2.223,1.467c-0.796,0.469-1.543,1.002-2.242,1.598
		c-0.699,0.597-1.275,1.296-1.729,2.098c-0.453,0.801-0.68,1.798-0.68,2.99c0,0.88,0.175,1.662,0.524,2.347
		c0.35,0.684,0.819,1.271,1.409,1.76c0.59,0.488,1.289,0.864,2.099,1.129c0.81,0.264,1.674,0.396,2.594,0.396
		c1.211,0,2.256-0.151,3.135-0.454c0.879-0.304,1.616-0.636,2.212-0.997c0.596-0.362,1.084-0.689,1.465-0.982
		c0.381-0.294,0.688-0.44,0.923-0.44c0.273,0,0.498,0.059,0.674,0.177c0.176,0.116,0.332,0.282,0.469,0.498l1.406,2.258
		c-0.625,0.581-1.309,1.129-2.051,1.644s-1.553,0.971-2.432,1.368s-1.841,0.713-2.886,0.945s-2.174,0.35-3.386,0.35
		c-1.587,0-3.057-0.225-4.407-0.672c-1.353-0.449-2.522-1.077-3.512-1.885c-0.989-0.809-1.763-1.803-2.321-2.98
		C380.785,100.232,380.506,98.894,380.506,97.394z M388.856,69.156c0-0.527,0.097-1.016,0.291-1.465
		c0.193-0.449,0.464-0.845,0.812-1.187c0.347-0.342,0.761-0.615,1.24-0.82s0.995-0.308,1.546-0.308c0.524,0,1.01,0.103,1.457,0.308
		c0.446,0.205,0.84,0.479,1.18,0.82c0.339,0.342,0.606,0.742,0.801,1.201s0.291,0.942,0.291,1.45c0,0.547-0.097,1.045-0.291,1.494
		s-0.462,0.845-0.801,1.187c-0.34,0.342-0.738,0.605-1.194,0.791c-0.457,0.186-0.938,0.278-1.442,0.278
		c-0.551,0-1.066-0.093-1.546-0.278s-0.894-0.449-1.24-0.791c-0.348-0.342-0.618-0.737-0.812-1.187
		C388.953,70.201,388.856,69.703,388.856,69.156z"/>
	<path fill="#FFFFFF" d="M405.819,74.781c0-3.223,0.513-6.182,1.538-8.877s2.466-5.015,4.321-6.958s4.082-3.457,6.68-4.541
		s5.479-1.626,8.643-1.626c3.159,0,6.042,0.542,8.646,1.626s4.837,2.598,6.699,4.541s3.301,4.263,4.315,6.958
		s1.521,5.654,1.521,8.877c0,2.012-0.205,3.931-0.613,5.757c-0.409,1.826-1.003,3.521-1.781,5.083
		c-0.779,1.562-1.723,2.983-2.833,4.263c-1.109,1.279-2.365,2.397-3.767,3.354l11.045,11.895h-4.805
		c-0.723,0-1.362-0.098-1.919-0.293s-1.069-0.547-1.538-1.055l-7.559-8.232c-1.133,0.352-2.314,0.63-3.545,0.835
		s-2.52,0.308-3.867,0.308c-3.164,0-6.045-0.532-8.643-1.597s-4.824-2.568-6.68-4.512s-3.296-4.258-4.321-6.943
		S405.819,78.004,405.819,74.781z M411.766,74.781c0,2.637,0.361,5,1.084,7.09s1.748,3.857,3.076,5.303s2.93,2.554,4.805,3.325
		s3.965,1.157,6.27,1.157c2.324,0,4.424-0.386,6.299-1.157s3.477-1.88,4.805-3.325s2.349-3.213,3.062-5.303s1.069-4.453,1.069-7.09
		s-0.356-5.005-1.069-7.104s-1.733-3.877-3.062-5.332s-2.93-2.573-4.805-3.354s-3.975-1.172-6.299-1.172
		c-2.305,0-4.395,0.391-6.27,1.172s-3.477,1.899-4.805,3.354s-2.354,3.232-3.076,5.332S411.766,72.145,411.766,74.781z"/>
	<path fill="#FFFFFF" d="M454.598,85.24V65.875h5.332v19.408c0,2.31,0.532,4.096,1.597,5.358s2.661,1.894,4.79,1.894
		c1.562,0,3.032-0.372,4.409-1.115c1.377-0.744,2.651-1.771,3.823-3.083V65.875h5.332v30.381h-3.164
		c-0.762,0-1.25-0.366-1.465-1.099l-0.41-3.238c-1.328,1.447-2.808,2.61-4.438,3.488s-3.511,1.317-5.64,1.317
		c-1.66,0-3.125-0.273-4.395-0.82s-2.334-1.318-3.193-2.314s-1.504-2.207-1.934-3.633S454.598,86.959,454.598,85.24z"/>
	<path fill="#FFFFFF" d="M486.502,80.4c0-2.124,0.323-4.102,0.97-5.934c0.646-1.831,1.582-3.419,2.807-4.764
		c1.224-1.345,2.718-2.401,4.48-3.172c1.764-0.77,3.752-1.154,5.966-1.154c1.811,0,3.484,0.308,5.021,0.921
		c1.538,0.613,2.866,1.495,3.985,2.644c1.119,1.149,1.99,2.566,2.613,4.251s0.935,3.598,0.935,5.74c0,0.855-0.088,1.427-0.264,1.716
		c-0.175,0.288-0.516,0.432-1.021,0.432h-20.16c0.039,1.914,0.297,3.584,0.775,5.01c0.477,1.426,1.135,2.612,1.974,3.56
		s1.838,1.655,2.998,2.124c1.159,0.469,2.461,0.703,3.904,0.703c1.344,0,2.498-0.156,3.462-0.469s1.792-0.649,2.483-1.011
		s1.271-0.693,1.739-0.996c0.467-0.303,0.876-0.454,1.227-0.454c0.446,0,0.786,0.166,1.02,0.498l1.484,1.963
		c-0.661,0.801-1.45,1.494-2.365,2.08c-0.914,0.586-1.897,1.069-2.948,1.45c-1.052,0.381-2.132,0.664-3.241,0.85
		s-2.219,0.278-3.328,0.278c-2.116,0-4.056-0.353-5.818-1.057c-1.763-0.705-3.291-1.747-4.584-3.127s-2.302-3.082-3.026-5.108
		S486.502,83.023,486.502,80.4z M492.01,77.74h16.494c0-1.238-0.166-2.38-0.497-3.422s-0.829-1.942-1.491-2.699
		c-0.663-0.757-1.473-1.342-2.428-1.755s-2.037-0.62-3.246-0.62c-2.573,0-4.597,0.753-6.068,2.257
		C493.301,73.006,492.38,75.085,492.01,77.74z M497.538,61.363l4.414-7.266c0.272-0.469,0.575-0.806,0.906-1.011
		s0.818-0.308,1.462-0.308h5.203l-6.957,7.734c-0.273,0.293-0.546,0.508-0.819,0.645c-0.272,0.137-0.624,0.205-1.052,0.205H497.538z
		"/>
	<path fill="#FFFFFF" d="M531.678,106.539V65.875h3.185c0.766,0,1.247,0.373,1.444,1.119l0.45,3.594
		c1.308-1.589,2.791-2.865,4.449-3.826c1.658-0.962,3.58-1.443,5.766-1.443c1.738,0,3.314,0.337,4.73,1.01
		c1.416,0.674,2.627,1.664,3.633,2.972c1.006,1.307,1.777,2.932,2.314,4.873s0.807,4.171,0.807,6.688
		c0,2.248-0.303,4.335-0.908,6.261c-0.605,1.925-1.465,3.592-2.578,4.999s-2.486,2.517-4.117,3.328
		c-1.631,0.811-3.471,1.217-5.521,1.217c-1.875,0-3.477-0.312-4.805-0.936c-1.329-0.624-2.5-1.521-3.516-2.689v13.498H531.678z
		 M537.01,88.887c0.977,1.323,2.051,2.253,3.223,2.787c1.172,0.535,2.471,0.803,3.896,0.803c2.812,0,4.984-1.007,6.518-3.021
		s2.301-4.879,2.301-8.595c0-1.965-0.176-3.657-0.527-5.078c-0.352-1.42-0.859-2.583-1.523-3.487
		c-0.664-0.905-1.48-1.566-2.447-1.984c-0.967-0.419-2.055-0.628-3.266-0.628c-1.738,0-3.262,0.399-4.57,1.196
		c-1.309,0.798-2.51,1.917-3.604,3.356V88.887z"/>
	<path fill="#FFFFFF" d="M564.286,56.324c0-0.527,0.102-1.025,0.307-1.494s0.479-0.879,0.82-1.23s0.742-0.625,1.201-0.82
		s0.943-0.293,1.451-0.293c0.527,0,1.02,0.098,1.479,0.293s0.865,0.469,1.217,0.82s0.629,0.762,0.834,1.23s0.309,0.967,0.309,1.494
		s-0.104,1.016-0.309,1.465s-0.482,0.85-0.834,1.201s-0.758,0.625-1.217,0.82s-0.951,0.293-1.479,0.293s-1.016-0.098-1.465-0.293
		s-0.846-0.469-1.188-0.82s-0.615-0.752-0.82-1.201S564.286,56.852,564.286,56.324z M565.37,96.256V65.875h5.332v30.381H565.37z"/>
	<path fill="#FFFFFF" d="M577.968,80.436c0-2.129,0.322-4.111,0.969-5.947s1.582-3.428,2.807-4.775s2.719-2.407,4.48-3.179
		c1.764-0.771,3.752-1.157,5.967-1.157c1.811,0,3.484,0.308,5.021,0.923s2.865,1.499,3.984,2.651s1.99,2.573,2.613,4.263
		s0.936,3.608,0.936,5.757c0,0.84-0.088,1.401-0.264,1.685s-0.516,0.425-1.021,0.425H583.3c0.039,1.914,0.297,3.584,0.775,5.01
		c0.477,1.426,1.135,2.612,1.973,3.56c0.84,0.947,1.838,1.655,2.998,2.124s2.461,0.703,3.904,0.703c1.344,0,2.498-0.156,3.463-0.469
		c0.963-0.312,1.791-0.649,2.482-1.011s1.271-0.693,1.74-0.996c0.467-0.303,0.875-0.454,1.227-0.454c0.445,0,0.785,0.166,1.02,0.498
		l1.484,1.963c-0.662,0.801-1.451,1.494-2.365,2.08s-1.898,1.069-2.949,1.45s-2.131,0.664-3.24,0.85s-2.219,0.278-3.328,0.278
		c-2.117,0-4.057-0.352-5.818-1.055c-1.764-0.703-3.291-1.743-4.584-3.12s-2.303-3.076-3.027-5.098S577.968,83.053,577.968,80.436z
		 M583.476,77.74h16.494c0-1.238-0.166-2.38-0.498-3.422c-0.33-1.042-0.828-1.942-1.49-2.699c-0.664-0.757-1.473-1.342-2.428-1.755
		s-2.037-0.62-3.246-0.62c-2.574,0-4.598,0.753-6.068,2.257C584.767,73.006,583.845,75.085,583.476,77.74z"/>
	<path fill="#FFFFFF" d="M611.571,96.256V65.875h3.184c0.766,0,1.248,0.364,1.445,1.092l0.422,3.217
		c1.326-1.439,2.799-2.601,4.418-3.482c1.619-0.883,3.502-1.324,5.648-1.324c1.654,0,3.115,0.278,4.381,0.835
		s2.322,1.338,3.17,2.344s1.49,2.217,1.928,3.633s0.658,2.993,0.658,4.731v19.336h-5.332v-19.4c0-2.312-0.523-4.104-1.568-5.378
		c-1.045-1.274-2.65-1.911-4.818-1.911c-1.582,0-3.057,0.382-4.424,1.146s-2.627,1.793-3.779,3.086v22.457H611.571z"/>
	<path fill="#FFFFFF" d="M642.372,93.005l1.26-2.029c0.156-0.255,0.348-0.455,0.572-0.603s0.521-0.221,0.893-0.221
		c0.354,0,0.732,0.142,1.135,0.427c0.402,0.284,0.887,0.598,1.453,0.94s1.254,0.651,2.064,0.927c0.811,0.274,1.83,0.411,3.059,0.411
		c1.033,0,1.939-0.132,2.719-0.395s1.426-0.623,1.941-1.081c0.518-0.458,0.902-0.988,1.154-1.593
		c0.254-0.604,0.381-1.247,0.381-1.929c0-0.838-0.225-1.529-0.674-2.075c-0.449-0.545-1.045-1.013-1.787-1.402
		c-0.74-0.39-1.584-0.731-2.527-1.024c-0.945-0.293-1.918-0.594-2.916-0.904c-1-0.311-1.975-0.673-2.922-1.089
		c-0.947-0.415-1.791-0.939-2.533-1.572s-1.338-1.409-1.787-2.329s-0.674-2.042-0.674-3.368c0-1.139,0.238-2.239,0.719-3.302
		c0.479-1.062,1.178-1.994,2.098-2.795c0.918-0.802,2.053-1.438,3.402-1.912s2.885-0.71,4.605-0.71c1.973,0,3.746,0.308,5.322,0.924
		c1.578,0.616,2.936,1.456,4.076,2.517l-1.18,1.96c-0.23,0.448-0.584,0.663-1.064,0.643c-0.287,0-0.623-0.107-1.008-0.323
		c-0.383-0.216-0.848-0.461-1.393-0.735s-1.195-0.529-1.953-0.765c-0.76-0.235-1.654-0.353-2.684-0.353
		c-0.896,0-1.705,0.12-2.426,0.36s-1.334,0.564-1.842,0.975c-0.506,0.41-0.895,0.885-1.168,1.425s-0.408,1.129-0.408,1.77
		c0,0.8,0.221,1.465,0.664,1.995c0.441,0.529,1.027,0.989,1.76,1.379c0.73,0.391,1.559,0.733,2.484,1.03s1.893,0.607,2.902,0.932
		c1.008,0.323,1.977,0.683,2.904,1.076c0.928,0.395,1.76,0.885,2.494,1.471s1.324,1.307,1.768,2.162
		c0.445,0.855,0.668,1.889,0.668,3.1c0,1.413-0.248,2.714-0.74,3.902c-0.494,1.188-1.23,2.219-2.207,3.092
		c-0.977,0.874-2.166,1.561-3.57,2.062c-1.402,0.501-3.023,0.751-4.861,0.751c-2.131,0-4.057-0.345-5.777-1.033
		C645.05,95.003,643.583,94.107,642.372,93.005z"/>
	<path fill="#FFFFFF" d="M669.286,88.668c0-1.191,0.332-2.344,0.996-3.457s1.729-2.1,3.193-2.959s3.389-1.567,5.771-2.124
		s5.293-0.874,8.73-0.952v-2.365c0-2.356-0.504-4.133-1.512-5.331c-1.008-1.197-2.512-1.796-4.508-1.796
		c-1.311,0-2.404,0.165-3.285,0.493c-0.879,0.329-1.646,0.692-2.303,1.089c-0.654,0.396-1.217,0.76-1.686,1.089
		s-0.939,0.493-1.408,0.493c-0.35,0-0.66-0.092-0.932-0.275s-0.486-0.42-0.641-0.71l-0.961-1.682
		c1.678-1.631,3.49-2.849,5.432-3.654c1.943-0.806,4.096-1.208,6.459-1.208c1.715,0,3.238,0.283,4.568,0.85s2.449,1.348,3.357,2.344
		c0.906,0.996,1.592,2.202,2.055,3.618s0.695,2.974,0.695,4.673v19.453h-2.373c-0.527,0-0.947-0.078-1.26-0.234
		s-0.518-0.498-0.615-1.025l-0.67-2.812c-0.805,0.723-1.586,1.367-2.342,1.934s-1.557,1.045-2.4,1.436s-1.746,0.684-2.709,0.879
		s-2.023,0.293-3.18,0.293c-1.17,0-2.271-0.161-3.303-0.483c-1.033-0.322-1.93-0.815-2.689-1.479s-1.363-1.499-1.811-2.505
		C669.509,91.251,669.286,90.055,669.286,88.668z M674.384,88.367c0,0.792,0.131,1.473,0.396,2.043
		c0.264,0.569,0.615,1.038,1.057,1.404c0.439,0.367,0.959,0.633,1.557,0.797c0.596,0.164,1.246,0.246,1.951,0.246
		c0.939,0,1.801-0.092,2.584-0.275c0.783-0.183,1.521-0.448,2.217-0.796s1.355-0.768,1.982-1.261
		c0.625-0.492,1.242-1.058,1.85-1.694v-6.257c-2.467,0.077-4.561,0.271-6.283,0.579c-1.723,0.31-3.127,0.71-4.213,1.202
		c-1.088,0.493-1.875,1.077-2.365,1.753C674.628,86.784,674.384,87.537,674.384,88.367z"/>
	<path fill="#FFFFFF" d="M425.433,137.875h4.629c0.469,0,0.83,0.112,1.084,0.337s0.439,0.483,0.557,0.776l8.145,19.131
		c0.176,0.449,0.327,0.889,0.454,1.318s0.249,0.879,0.366,1.348c0.137-0.469,0.273-0.923,0.41-1.362s0.293-0.884,0.469-1.333
		l7.91-19.102c0.117-0.312,0.317-0.576,0.601-0.791s0.601-0.322,0.952-0.322h4.248l-16.934,39.346
		c-0.176,0.391-0.4,0.708-0.674,0.952s-0.693,0.366-1.26,0.366h-3.955l5.537-12.041L425.433,137.875z"/>
	<path fill="#FFFFFF" d="M469.155,165.005l1.26-2.029c0.156-0.255,0.347-0.455,0.571-0.603s0.522-0.221,0.894-0.221
		c0.354,0,0.731,0.142,1.135,0.427c0.402,0.284,0.887,0.598,1.453,0.94c0.565,0.343,1.254,0.651,2.063,0.927
		c0.811,0.274,1.83,0.411,3.06,0.411c1.032,0,1.938-0.132,2.718-0.395s1.426-0.623,1.942-1.081s0.901-0.988,1.154-1.593
		s0.38-1.247,0.38-1.929c0-0.838-0.225-1.529-0.674-2.075c-0.448-0.545-1.044-1.013-1.786-1.402
		c-0.741-0.39-1.584-0.731-2.528-1.024s-1.917-0.594-2.916-0.904c-1-0.311-1.974-0.673-2.921-1.089
		c-0.947-0.415-1.792-0.939-2.534-1.572s-1.338-1.409-1.787-2.329s-0.674-2.042-0.674-3.368c0-1.139,0.239-2.239,0.719-3.302
		c0.479-1.062,1.178-1.994,2.098-2.795c0.919-0.802,2.053-1.438,3.402-1.912s2.885-0.71,4.605-0.71c1.973,0,3.747,0.308,5.323,0.924
		c1.577,0.616,2.936,1.456,4.076,2.517l-1.18,1.96c-0.23,0.448-0.585,0.663-1.064,0.643c-0.288,0-0.624-0.107-1.008-0.323
		s-0.848-0.461-1.393-0.735s-1.196-0.529-1.954-0.765c-0.759-0.235-1.653-0.353-2.684-0.353c-0.896,0-1.705,0.12-2.426,0.36
		s-1.334,0.564-1.841,0.975c-0.506,0.41-0.896,0.885-1.168,1.425c-0.273,0.54-0.409,1.129-0.409,1.77c0,0.8,0.221,1.465,0.664,1.995
		c0.441,0.529,1.028,0.989,1.76,1.379c0.73,0.391,1.56,0.733,2.484,1.03c0.926,0.297,1.894,0.607,2.902,0.932
		c1.009,0.323,1.978,0.683,2.905,1.076c0.928,0.395,1.759,0.885,2.493,1.471s1.324,1.307,1.769,2.162s0.667,1.889,0.667,3.1
		c0,1.413-0.247,2.714-0.74,3.902c-0.493,1.188-1.229,2.219-2.206,3.092c-0.978,0.874-2.167,1.561-3.57,2.062
		s-3.023,0.751-4.862,0.751c-2.131,0-4.056-0.345-5.776-1.033C471.832,167.003,470.366,166.107,469.155,165.005z"/>
	<path fill="#FFFFFF" d="M497.21,128.324c0-0.527,0.103-1.025,0.308-1.494s0.479-0.879,0.82-1.23s0.742-0.625,1.201-0.82
		s0.942-0.293,1.45-0.293c0.527,0,1.021,0.098,1.479,0.293s0.864,0.469,1.216,0.82s0.63,0.762,0.835,1.23s0.308,0.967,0.308,1.494
		s-0.103,1.016-0.308,1.465s-0.483,0.85-0.835,1.201s-0.757,0.625-1.216,0.82s-0.952,0.293-1.479,0.293s-1.016-0.098-1.465-0.293
		s-0.845-0.469-1.187-0.82s-0.615-0.752-0.82-1.201S497.21,128.852,497.21,128.324z M498.294,168.256v-30.381h5.332v30.381H498.294z
		"/>
	<path fill="#FFFFFF" d="M510.892,152.436c0-2.129,0.323-4.111,0.97-5.947s1.582-3.428,2.807-4.775
		c1.224-1.348,2.718-2.407,4.48-3.179c1.764-0.771,3.752-1.157,5.966-1.157c1.811,0,3.484,0.308,5.021,0.923
		c1.538,0.615,2.866,1.499,3.985,2.651s1.99,2.573,2.613,4.263s0.935,3.608,0.935,5.757c0,0.84-0.088,1.401-0.264,1.685
		c-0.175,0.283-0.516,0.425-1.021,0.425h-20.16c0.039,1.914,0.297,3.584,0.775,5.01c0.477,1.426,1.135,2.612,1.974,3.56
		s1.838,1.655,2.998,2.124c1.159,0.469,2.461,0.703,3.904,0.703c1.344,0,2.498-0.156,3.462-0.469s1.792-0.649,2.483-1.011
		s1.271-0.693,1.739-0.996c0.467-0.303,0.876-0.454,1.227-0.454c0.446,0,0.786,0.166,1.02,0.498l1.484,1.963
		c-0.661,0.801-1.45,1.494-2.365,2.08c-0.914,0.586-1.897,1.069-2.948,1.45c-1.052,0.381-2.132,0.664-3.241,0.85
		s-2.219,0.278-3.328,0.278c-2.116,0-4.056-0.352-5.818-1.055s-3.291-1.743-4.584-3.12s-2.302-3.076-3.026-5.098
		S510.892,155.053,510.892,152.436z M516.4,149.74h16.494c0-1.238-0.166-2.38-0.497-3.422s-0.829-1.942-1.491-2.699
		c-0.663-0.757-1.473-1.342-2.428-1.755s-2.037-0.62-3.246-0.62c-2.573,0-4.597,0.753-6.068,2.257
		C517.691,145.006,516.77,147.085,516.4,149.74z"/>
	<path fill="#FFFFFF" d="M544.495,168.256v-30.381h3.186c0.766,0,1.246,0.364,1.443,1.092l0.422,3.217
		c1.328-1.439,2.801-2.601,4.42-3.482c1.619-0.883,3.5-1.324,5.646-1.324c1.656,0,3.115,0.278,4.383,0.835
		c1.266,0.557,2.322,1.338,3.168,2.344c0.848,1.006,1.49,2.217,1.93,3.633c0.438,1.416,0.656,2.993,0.656,4.731v19.336h-5.332v-19.4
		c0-2.312-0.521-4.104-1.566-5.378c-1.045-1.274-2.652-1.911-4.82-1.911c-1.582,0-3.057,0.382-4.424,1.146s-2.627,1.793-3.779,3.086
		v22.457H544.495z"/>
	<path fill="#FFFFFF" d="M574.759,141.156v-2.109l4.98-0.645l1.23-9.375c0.039-0.293,0.172-0.537,0.396-0.732
		s0.502-0.293,0.834-0.293h2.695v10.459h8.701v3.867h-8.701v18.252c0,1.289,0.312,2.241,0.938,2.856s1.426,0.923,2.402,0.923
		c0.566,0,1.051-0.073,1.451-0.22s0.752-0.312,1.055-0.498s0.561-0.352,0.775-0.498s0.4-0.22,0.557-0.22
		c0.273,0,0.527,0.166,0.762,0.498l1.553,2.549c-0.918,0.859-2.025,1.533-3.324,2.021s-2.643,0.732-4.029,0.732
		c-2.402,0-4.248-0.669-5.537-2.007s-1.934-3.267-1.934-5.786v-18.604h-3.662c-0.312,0-0.58-0.093-0.805-0.278
		S574.759,141.566,574.759,141.156z"/>
	<path fill="#FFFFFF" d="M598.021,152.436c0-2.129,0.324-4.111,0.971-5.947s1.582-3.428,2.807-4.775
		c1.223-1.348,2.717-2.407,4.48-3.179s3.752-1.157,5.965-1.157c1.811,0,3.484,0.308,5.021,0.923
		c1.539,0.615,2.867,1.499,3.986,2.651s1.99,2.573,2.613,4.263s0.934,3.608,0.934,5.757c0,0.84-0.088,1.401-0.264,1.685
		c-0.174,0.283-0.516,0.425-1.021,0.425h-20.16c0.039,1.914,0.297,3.584,0.775,5.01c0.477,1.426,1.135,2.612,1.975,3.56
		c0.838,0.947,1.838,1.655,2.998,2.124c1.158,0.469,2.461,0.703,3.904,0.703c1.344,0,2.498-0.156,3.461-0.469
		c0.965-0.312,1.793-0.649,2.484-1.011s1.27-0.693,1.738-0.996c0.467-0.303,0.877-0.454,1.227-0.454c0.447,0,0.787,0.166,1.02,0.498
		l1.484,1.963c-0.66,0.801-1.449,1.494-2.365,2.08c-0.914,0.586-1.896,1.069-2.947,1.45c-1.053,0.381-2.133,0.664-3.242,0.85
		s-2.219,0.278-3.328,0.278c-2.115,0-4.055-0.352-5.818-1.055c-1.762-0.703-3.291-1.743-4.584-3.12s-2.301-3.076-3.025-5.098
		S598.021,155.053,598.021,152.436z M603.528,149.74h16.494c0-1.238-0.166-2.38-0.496-3.422c-0.332-1.042-0.83-1.942-1.492-2.699
		s-1.473-1.342-2.428-1.755s-2.037-0.62-3.246-0.62c-2.572,0-4.596,0.753-6.068,2.257
		C604.819,145.006,603.899,147.085,603.528,149.74z"/>
	<path fill="#FFFFFF" d="M628.31,129.086c0.625-0.581,1.309-1.129,2.051-1.644s1.557-0.971,2.445-1.368s1.852-0.713,2.887-0.945
		s2.158-0.35,3.371-0.35c1.578,0,3.045,0.229,4.398,0.688c1.354,0.457,2.518,1.105,3.492,1.942c0.975,0.838,1.738,1.856,2.295,3.054
		c0.555,1.199,0.832,2.548,0.832,4.048c0,1.525-0.221,2.835-0.662,3.93c-0.443,1.095-1,2.058-1.672,2.889s-1.412,1.554-2.219,2.17
		c-0.809,0.616-1.568,1.192-2.281,1.729c-0.715,0.538-1.326,1.08-1.836,1.628c-0.508,0.548-0.801,1.144-0.879,1.788l-0.559,4.604
		h-3.926l-0.088-4.984v-0.323c0-0.84,0.227-1.588,0.678-2.243c0.451-0.654,1.025-1.266,1.723-1.832s1.438-1.139,2.223-1.716
		c0.785-0.576,1.521-1.207,2.209-1.892c0.688-0.684,1.254-1.466,1.699-2.346c0.445-0.879,0.668-1.926,0.668-3.138
		c0-0.859-0.174-1.637-0.52-2.331c-0.348-0.693-0.812-1.29-1.396-1.789c-0.584-0.498-1.277-0.874-2.08-1.129
		c-0.803-0.254-1.66-0.381-2.57-0.381c-1.211,0-2.256,0.146-3.135,0.439c-0.879,0.294-1.617,0.621-2.213,0.982
		c-0.596,0.362-1.078,0.694-1.449,0.997c-0.371,0.304-0.674,0.455-0.908,0.455c-0.508,0-0.898-0.234-1.172-0.704L628.31,129.086z
		 M634.144,164.945c0-0.527,0.094-1.016,0.279-1.465s0.445-0.845,0.777-1.187s0.727-0.615,1.188-0.82
		c0.459-0.205,0.943-0.308,1.451-0.308c0.551,0,1.066,0.103,1.547,0.308s0.898,0.479,1.256,0.82s0.635,0.742,0.828,1.201
		c0.195,0.459,0.291,0.942,0.291,1.45c0,0.547-0.096,1.045-0.291,1.494c-0.193,0.449-0.471,0.845-0.828,1.187
		s-0.775,0.605-1.256,0.791s-0.996,0.278-1.547,0.278c-0.527,0-1.018-0.093-1.467-0.278s-0.84-0.449-1.172-0.791
		s-0.592-0.737-0.777-1.187S634.144,165.492,634.144,164.945z"/>
</g>
<line fill="none" stroke="#FFFFFF" stroke-width="2" stroke-miterlimit="10" x1="538.354" y1="302.354" x2="538.354" y2="197.354"/>
<circle fill="#FFFFFF" cx="539.074" cy="196.707" r="5"/>
<line fill="none" stroke="#FFFFFF" stroke-width="2" stroke-miterlimit="10" x1="538.354" y1="885.354" x2="538.354" y2="782.354"/>
<g>
	<path fill="#FFFFFF" d="M408.829,955.444c0-1.525,0.222-2.815,0.665-3.871c0.442-1.056,1.006-1.965,1.69-2.728
		c0.684-0.763,1.43-1.417,2.239-1.965c0.81-0.547,1.569-1.061,2.281-1.539c0.711-0.479,1.328-0.963,1.853-1.452
		c0.523-0.489,0.824-1.065,0.903-1.73l0.534-4.604h3.926l0.088,5.015v0.352c0,0.88-0.227,1.628-0.678,2.243
		c-0.451,0.616-1.021,1.179-1.707,1.687c-0.688,0.509-1.429,0.997-2.223,1.467c-0.796,0.469-1.543,1.002-2.242,1.598
		c-0.699,0.597-1.275,1.296-1.729,2.098c-0.453,0.801-0.68,1.798-0.68,2.99c0,0.88,0.175,1.662,0.524,2.347
		c0.35,0.684,0.819,1.271,1.409,1.76c0.59,0.488,1.289,0.864,2.099,1.129c0.81,0.264,1.674,0.396,2.594,0.396
		c1.211,0,2.256-0.151,3.135-0.454c0.879-0.304,1.616-0.636,2.212-0.997c0.596-0.362,1.084-0.689,1.465-0.982
		c0.381-0.294,0.688-0.44,0.923-0.44c0.273,0,0.498,0.059,0.674,0.177c0.176,0.116,0.332,0.282,0.469,0.498l1.406,2.258
		c-0.625,0.581-1.309,1.129-2.051,1.644s-1.553,0.971-2.432,1.368s-1.841,0.713-2.886,0.945s-2.174,0.35-3.386,0.35
		c-1.587,0-3.057-0.225-4.407-0.672c-1.353-0.449-2.522-1.077-3.512-1.885c-0.989-0.809-1.763-1.803-2.321-2.98
		C409.107,958.283,408.829,956.944,408.829,955.444z M417.178,927.207c0-0.527,0.097-1.016,0.291-1.465
		c0.193-0.449,0.464-0.845,0.812-1.187c0.347-0.342,0.761-0.615,1.24-0.82s0.995-0.308,1.546-0.308c0.524,0,1.01,0.103,1.457,0.308
		c0.446,0.205,0.84,0.479,1.18,0.82c0.339,0.342,0.606,0.742,0.801,1.201s0.291,0.942,0.291,1.45c0,0.547-0.097,1.045-0.291,1.494
		s-0.462,0.845-0.801,1.187c-0.34,0.342-0.738,0.605-1.194,0.791c-0.457,0.186-0.938,0.278-1.442,0.278
		c-0.551,0-1.066-0.093-1.546-0.278s-0.894-0.449-1.24-0.791c-0.348-0.342-0.618-0.737-0.812-1.187
		C417.275,928.252,417.178,927.754,417.178,927.207z"/>
	<path fill="#FFFFFF" d="M434.141,932.832c0-3.223,0.513-6.182,1.538-8.877s2.466-5.015,4.321-6.958s4.082-3.457,6.68-4.541
		s5.479-1.626,8.643-1.626c3.159,0,6.042,0.542,8.646,1.626s4.837,2.598,6.699,4.541s3.301,4.263,4.315,6.958
		s1.521,5.654,1.521,8.877c0,2.012-0.205,3.931-0.613,5.757c-0.409,1.826-1.003,3.521-1.781,5.083
		c-0.779,1.562-1.723,2.983-2.833,4.263c-1.109,1.279-2.365,2.397-3.767,3.354l11.045,11.895h-4.805
		c-0.723,0-1.362-0.098-1.919-0.293s-1.069-0.547-1.538-1.055l-7.559-8.232c-1.133,0.352-2.314,0.63-3.545,0.835
		s-2.52,0.308-3.867,0.308c-3.164,0-6.045-0.532-8.643-1.597s-4.824-2.568-6.68-4.512s-3.296-4.258-4.321-6.943
		S434.141,936.055,434.141,932.832z M440.088,932.832c0,2.637,0.361,5,1.084,7.09s1.748,3.857,3.076,5.303s2.93,2.554,4.805,3.325
		s3.965,1.157,6.27,1.157c2.324,0,4.424-0.386,6.299-1.157s3.477-1.88,4.805-3.325s2.349-3.213,3.062-5.303s1.069-4.453,1.069-7.09
		s-0.356-5.005-1.069-7.104s-1.733-3.877-3.062-5.332s-2.93-2.573-4.805-3.354s-3.975-1.172-6.299-1.172
		c-2.305,0-4.395,0.391-6.27,1.172s-3.477,1.899-4.805,3.354s-2.354,3.232-3.076,5.332S440.088,930.195,440.088,932.832z"/>
	<path fill="#FFFFFF" d="M482.92,943.291v-19.365h5.332v19.408c0,2.31,0.532,4.096,1.597,5.358s2.661,1.894,4.79,1.894
		c1.562,0,3.032-0.372,4.409-1.115c1.377-0.744,2.651-1.771,3.823-3.083v-22.462h5.332v30.381h-3.164
		c-0.762,0-1.25-0.366-1.465-1.099l-0.41-3.238c-1.328,1.447-2.808,2.61-4.438,3.488s-3.511,1.317-5.64,1.317
		c-1.66,0-3.125-0.273-4.395-0.82s-2.334-1.318-3.193-2.314s-1.504-2.207-1.934-3.633S482.92,945.01,482.92,943.291z"/>
	<path fill="#FFFFFF" d="M514.825,938.451c0-2.124,0.323-4.102,0.97-5.934c0.646-1.831,1.582-3.419,2.807-4.764
		c1.224-1.345,2.718-2.401,4.48-3.172c1.764-0.77,3.752-1.154,5.966-1.154c1.811,0,3.484,0.308,5.021,0.921
		c1.538,0.613,2.866,1.495,3.985,2.644c1.119,1.149,1.99,2.566,2.613,4.251s0.936,3.598,0.936,5.74c0,0.855-0.088,1.427-0.264,1.716
		c-0.176,0.288-0.516,0.432-1.021,0.432h-20.161c0.039,1.914,0.297,3.584,0.775,5.01c0.477,1.426,1.135,2.612,1.974,3.56
		s1.838,1.655,2.998,2.124c1.159,0.469,2.461,0.703,3.904,0.703c1.344,0,2.498-0.156,3.462-0.469s1.792-0.649,2.483-1.011
		s1.271-0.693,1.739-0.996c0.467-0.303,0.876-0.454,1.227-0.454c0.446,0,0.786,0.166,1.02,0.498l1.484,1.963
		c-0.662,0.801-1.451,1.494-2.366,2.08c-0.914,0.586-1.897,1.069-2.948,1.45c-1.052,0.381-2.132,0.664-3.241,0.85
		s-2.219,0.278-3.328,0.278c-2.116,0-4.056-0.353-5.818-1.057c-1.763-0.705-3.291-1.747-4.584-3.127s-2.302-3.082-3.026-5.108
		S514.825,941.074,514.825,938.451z M520.333,935.791h16.494c0-1.238-0.166-2.38-0.497-3.422s-0.829-1.942-1.491-2.699
		c-0.663-0.757-1.473-1.342-2.428-1.755s-2.037-0.62-3.246-0.62c-2.573,0-4.597,0.753-6.068,2.257
		C521.624,931.057,520.703,933.136,520.333,935.791z M525.86,919.414l4.414-7.266c0.272-0.469,0.575-0.806,0.906-1.011
		s0.818-0.308,1.462-0.308h5.203l-6.957,7.734c-0.273,0.293-0.546,0.508-0.819,0.645c-0.272,0.137-0.624,0.205-1.052,0.205H525.86z"
		/>
	<path fill="#FFFFFF" d="M557.774,939.189c0-2.242,0.297-4.323,0.893-6.243c0.596-1.921,1.461-3.593,2.594-5.016
		s2.51-2.539,4.131-3.348c1.621-0.81,3.457-1.214,5.508-1.214c1.855,0,3.447,0.317,4.775,0.952s2.51,1.519,3.545,2.651v-16.846
		h5.332v44.18h-3.164c-0.762,0-1.25-0.375-1.465-1.127l-0.469-3.734c-1.309,1.6-2.793,2.878-4.453,3.836
		c-1.66,0.957-3.574,1.436-5.742,1.436c-1.738,0-3.32-0.333-4.746-0.998s-2.637-1.648-3.633-2.949
		c-0.996-1.302-1.764-2.926-2.301-4.873S557.774,941.714,557.774,939.189z M563.282,939.189c0,1.967,0.17,3.657,0.512,5.069
		c0.342,1.413,0.846,2.571,1.51,3.478s1.475,1.568,2.432,1.987s2.051,0.628,3.281,0.628c1.738,0,3.266-0.399,4.584-1.198
		s2.525-1.929,3.619-3.39v-14.669c-0.977-1.325-2.051-2.245-3.223-2.762s-2.471-0.774-3.896-0.774c-2.832,0-5.01,1.004-6.533,3.01
		C564.044,932.575,563.282,935.448,563.282,939.189z"/>
	<path fill="#FFFFFF" d="M593.019,914.375c0-0.527,0.102-1.025,0.307-1.494s0.479-0.879,0.82-1.23s0.742-0.625,1.201-0.82
		s0.943-0.293,1.451-0.293c0.527,0,1.02,0.098,1.479,0.293s0.865,0.469,1.217,0.82s0.629,0.762,0.834,1.23s0.309,0.967,0.309,1.494
		s-0.104,1.016-0.309,1.465s-0.482,0.85-0.834,1.201s-0.758,0.625-1.217,0.82s-0.951,0.293-1.479,0.293s-1.016-0.098-1.465-0.293
		s-0.846-0.469-1.188-0.82s-0.615-0.752-0.82-1.201S593.019,914.902,593.019,914.375z M594.103,954.307v-30.381h5.332v30.381
		H594.103z"/>
	<path fill="#FFFFFF" d="M606.7,939.072c0-2.262,0.314-4.347,0.941-6.258c0.629-1.91,1.551-3.562,2.77-4.956
		c1.217-1.395,2.715-2.481,4.492-3.261c1.777-0.78,3.818-1.17,6.123-1.17c2.129,0,4.014,0.347,5.654,1.04s3.086,1.665,4.336,2.915
		l-1.406,1.934c-0.156,0.215-0.312,0.386-0.469,0.513s-0.391,0.19-0.703,0.19c-0.293,0-0.615-0.127-0.967-0.381
		s-0.797-0.532-1.334-0.835s-1.191-0.576-1.963-0.82s-1.723-0.366-2.855-0.366c-1.484,0-2.793,0.264-3.926,0.789
		c-1.133,0.526-2.086,1.286-2.857,2.279c-0.771,0.994-1.352,2.202-1.742,3.624s-0.586,3.01-0.586,4.763
		c0,1.831,0.209,3.458,0.629,4.88c0.42,1.423,1.012,2.62,1.773,3.595c0.762,0.974,1.689,1.714,2.783,2.221s2.314,0.76,3.662,0.76
		c1.309,0,2.383-0.153,3.223-0.46c0.84-0.306,1.537-0.646,2.094-1.02c0.557-0.373,1.016-0.708,1.377-1.005s0.719-0.445,1.07-0.445
		c0.469,0,0.811,0.162,1.025,0.486l1.494,1.917c-1.328,1.642-2.979,2.838-4.951,3.589s-4.053,1.127-6.24,1.127
		c-1.895,0-3.662-0.348-5.303-1.042s-3.064-1.712-4.271-3.053c-1.209-1.34-2.156-2.979-2.842-4.916
		C607.044,943.769,606.7,941.558,606.7,939.072z"/>
	<path fill="#FFFFFF" d="M634.708,938.486c0-2.129,0.322-4.111,0.969-5.947s1.582-3.428,2.807-4.775s2.719-2.407,4.48-3.179
		c1.764-0.771,3.752-1.157,5.967-1.157c1.811,0,3.484,0.308,5.021,0.923s2.865,1.499,3.984,2.651s1.99,2.573,2.613,4.263
		s0.936,3.608,0.936,5.757c0,0.84-0.088,1.401-0.264,1.685s-0.516,0.425-1.021,0.425h-20.16c0.039,1.914,0.297,3.584,0.775,5.01
		c0.477,1.426,1.135,2.612,1.973,3.56c0.84,0.947,1.838,1.655,2.998,2.124s2.461,0.703,3.904,0.703c1.344,0,2.498-0.156,3.463-0.469
		c0.963-0.312,1.791-0.649,2.482-1.011s1.271-0.693,1.74-0.996c0.467-0.303,0.875-0.454,1.227-0.454c0.445,0,0.785,0.166,1.02,0.498
		l1.484,1.963c-0.662,0.801-1.451,1.494-2.365,2.08s-1.898,1.069-2.949,1.45s-2.131,0.664-3.24,0.85s-2.219,0.278-3.328,0.278
		c-2.117,0-4.057-0.352-5.818-1.055c-1.764-0.703-3.291-1.743-4.584-3.12s-2.303-3.076-3.027-5.098S634.708,941.104,634.708,938.486
		z M640.216,935.791h16.494c0-1.238-0.166-2.38-0.498-3.422c-0.33-1.042-0.828-1.942-1.49-2.699
		c-0.664-0.757-1.473-1.342-2.428-1.755s-2.037-0.62-3.246-0.62c-2.574,0-4.598,0.753-6.068,2.257
		C641.507,931.057,640.585,933.136,640.216,935.791z"/>
	<path fill="#FFFFFF" d="M441.451,995.926h4.629c0.469,0,0.83,0.112,1.084,0.337s0.439,0.483,0.557,0.776l8.145,19.131
		c0.176,0.449,0.327,0.889,0.454,1.318s0.249,0.879,0.366,1.348c0.137-0.469,0.273-0.923,0.41-1.362s0.293-0.884,0.469-1.333
		l7.91-19.102c0.117-0.312,0.317-0.576,0.601-0.791s0.601-0.322,0.952-0.322h4.248l-16.934,39.346
		c-0.176,0.391-0.4,0.708-0.674,0.952s-0.693,0.366-1.26,0.366h-3.955l5.537-12.041L441.451,995.926z"/>
	<path fill="#FFFFFF" d="M487.71,1026.307v-44.268h5.332v17.872c1.309-1.36,2.749-2.447,4.321-3.262s3.394-1.222,5.464-1.222
		c1.655,0,3.115,0.278,4.382,0.835c1.266,0.557,2.322,1.338,3.169,2.344c0.848,1.006,1.49,2.217,1.929,3.633
		c0.438,1.416,0.657,2.993,0.657,4.731v19.336h-5.332v-19.4c0-2.312-0.522-4.104-1.567-5.378c-1.045-1.274-2.651-1.911-4.819-1.911
		c-1.582,0-3.057,0.382-4.424,1.146s-2.627,1.793-3.779,3.086v22.457H487.71z"/>
	<path fill="#FFFFFF" d="M519.41,1018.719c0-1.191,0.332-2.344,0.996-3.457s1.729-2.1,3.193-2.959s3.389-1.567,5.771-2.124
		s5.293-0.874,8.73-0.952v-2.365c0-2.356-0.504-4.133-1.512-5.331c-1.008-1.197-2.511-1.796-4.507-1.796
		c-1.311,0-2.405,0.165-3.285,0.493c-0.88,0.329-1.647,0.692-2.303,1.089s-1.218,0.76-1.687,1.089s-0.938,0.493-1.407,0.493
		c-0.351,0-0.66-0.092-0.933-0.275c-0.271-0.184-0.485-0.42-0.641-0.71l-0.961-1.682c1.679-1.631,3.49-2.849,5.433-3.654
		c1.943-0.806,4.096-1.208,6.458-1.208c1.715,0,3.238,0.283,4.568,0.85c1.331,0.566,2.451,1.348,3.357,2.344
		s1.592,2.202,2.055,3.618c0.465,1.416,0.695,2.974,0.695,4.673v19.453h-2.373c-0.527,0-0.947-0.078-1.26-0.234
		s-0.517-0.498-0.615-1.025l-0.67-2.812c-0.805,0.723-1.586,1.367-2.341,1.934c-0.757,0.566-1.557,1.045-2.4,1.436
		s-1.747,0.684-2.71,0.879c-0.962,0.195-2.022,0.293-3.18,0.293c-1.17,0-2.271-0.161-3.303-0.483
		c-1.033-0.322-1.929-0.815-2.688-1.479s-1.363-1.499-1.812-2.505S519.41,1020.105,519.41,1018.719z M524.507,1018.418
		c0,0.792,0.132,1.473,0.396,2.043c0.264,0.569,0.616,1.038,1.057,1.404c0.44,0.367,0.959,0.633,1.557,0.797
		c0.597,0.164,1.247,0.246,1.952,0.246c0.939,0,1.801-0.092,2.583-0.275c0.783-0.183,1.522-0.448,2.218-0.796
		c0.694-0.348,1.355-0.768,1.981-1.261c0.626-0.492,1.242-1.058,1.85-1.694v-6.257c-2.467,0.077-4.561,0.271-6.283,0.579
		c-1.723,0.31-3.127,0.71-4.213,1.202c-1.087,0.493-1.875,1.077-2.364,1.753S524.507,1017.588,524.507,1018.418z"/>
	<path fill="#FFFFFF" d="M549.292,1011.072c0-2.262,0.314-4.347,0.943-6.258c0.627-1.91,1.551-3.562,2.768-4.956
		c1.219-1.395,2.715-2.481,4.492-3.261c1.777-0.78,3.818-1.17,6.123-1.17c2.129,0,4.014,0.347,5.654,1.04s3.086,1.665,4.336,2.915
		l-1.406,1.934c-0.156,0.215-0.312,0.386-0.469,0.513s-0.391,0.19-0.703,0.19c-0.293,0-0.615-0.127-0.967-0.381
		s-0.795-0.532-1.332-0.835s-1.191-0.576-1.963-0.82s-1.725-0.366-2.857-0.366c-1.484,0-2.793,0.264-3.926,0.789
		c-1.133,0.526-2.084,1.286-2.855,2.279c-0.771,0.994-1.354,2.202-1.744,3.624s-0.586,3.01-0.586,4.763
		c0,1.831,0.211,3.458,0.631,4.88c0.42,1.423,1.01,2.62,1.771,3.595c0.762,0.974,1.689,1.714,2.783,2.221s2.314,0.76,3.662,0.76
		c1.309,0,2.383-0.153,3.223-0.46c0.84-0.306,1.539-0.646,2.096-1.02c0.557-0.373,1.016-0.708,1.377-1.005s0.717-0.445,1.068-0.445
		c0.469,0,0.811,0.162,1.025,0.486l1.494,1.917c-1.328,1.642-2.979,2.838-4.951,3.589s-4.053,1.127-6.24,1.127
		c-1.895,0-3.662-0.348-5.303-1.042s-3.064-1.712-4.271-3.053c-1.207-1.34-2.154-2.979-2.842-4.916
		C549.636,1015.769,549.292,1013.558,549.292,1011.072z"/>
	<path fill="#FFFFFF" d="M577.3,1010.486c0-2.129,0.324-4.111,0.971-5.947s1.582-3.428,2.807-4.775
		c1.223-1.348,2.717-2.407,4.48-3.179s3.752-1.157,5.965-1.157c1.811,0,3.484,0.308,5.021,0.923
		c1.539,0.615,2.867,1.499,3.986,2.651s1.99,2.573,2.613,4.263s0.934,3.608,0.934,5.757c0,0.84-0.088,1.401-0.264,1.685
		c-0.174,0.283-0.516,0.425-1.021,0.425h-20.16c0.039,1.914,0.297,3.584,0.775,5.01c0.477,1.426,1.135,2.612,1.975,3.56
		c0.838,0.947,1.838,1.655,2.998,2.124c1.158,0.469,2.461,0.703,3.904,0.703c1.344,0,2.498-0.156,3.461-0.469
		c0.965-0.312,1.793-0.649,2.484-1.011s1.27-0.693,1.738-0.996c0.467-0.303,0.877-0.454,1.227-0.454c0.447,0,0.787,0.166,1.02,0.498
		l1.484,1.963c-0.66,0.801-1.449,1.494-2.365,2.08c-0.914,0.586-1.896,1.069-2.947,1.45c-1.053,0.381-2.133,0.664-3.242,0.85
		s-2.219,0.278-3.328,0.278c-2.115,0-4.055-0.352-5.818-1.055c-1.762-0.703-3.291-1.743-4.584-3.12s-2.301-3.076-3.025-5.098
		S577.3,1013.104,577.3,1010.486z M582.808,1007.791h16.494c0-1.238-0.166-2.38-0.496-3.422c-0.332-1.042-0.83-1.942-1.492-2.699
		s-1.473-1.342-2.428-1.755s-2.037-0.62-3.246-0.62c-2.572,0-4.596,0.753-6.068,2.257
		C584.099,1003.057,583.179,1005.136,582.808,1007.791z"/>
	<path fill="#FFFFFF" d="M607.589,987.137c0.625-0.581,1.309-1.129,2.051-1.644s1.557-0.971,2.445-1.368s1.852-0.713,2.887-0.945
		s2.158-0.35,3.371-0.35c1.578,0,3.045,0.229,4.398,0.688c1.354,0.457,2.518,1.105,3.492,1.942c0.975,0.838,1.738,1.856,2.295,3.054
		c0.555,1.199,0.832,2.548,0.832,4.048c0,1.525-0.221,2.835-0.662,3.93c-0.443,1.095-1,2.058-1.672,2.889s-1.412,1.554-2.219,2.17
		c-0.809,0.616-1.568,1.192-2.281,1.729c-0.715,0.538-1.326,1.08-1.836,1.628c-0.508,0.548-0.801,1.144-0.879,1.788l-0.559,4.604
		h-3.926l-0.088-4.984v-0.323c0-0.84,0.227-1.588,0.678-2.243c0.451-0.654,1.025-1.266,1.723-1.832s1.438-1.139,2.223-1.716
		c0.785-0.576,1.521-1.207,2.209-1.892c0.688-0.684,1.254-1.466,1.699-2.346c0.445-0.879,0.668-1.926,0.668-3.138
		c0-0.859-0.174-1.637-0.52-2.331c-0.348-0.693-0.812-1.29-1.396-1.789c-0.584-0.498-1.277-0.874-2.08-1.129
		c-0.803-0.254-1.66-0.381-2.57-0.381c-1.211,0-2.256,0.146-3.135,0.439c-0.879,0.294-1.617,0.621-2.213,0.982
		c-0.596,0.362-1.078,0.694-1.449,0.997c-0.371,0.304-0.674,0.455-0.908,0.455c-0.508,0-0.898-0.234-1.172-0.704L607.589,987.137z
		 M613.423,1022.996c0-0.527,0.094-1.016,0.279-1.465s0.445-0.845,0.777-1.187s0.727-0.615,1.188-0.82
		c0.459-0.205,0.943-0.308,1.451-0.308c0.551,0,1.066,0.103,1.547,0.308s0.898,0.479,1.256,0.82s0.635,0.742,0.828,1.201
		c0.195,0.459,0.291,0.942,0.291,1.45c0,0.547-0.096,1.045-0.291,1.494c-0.193,0.449-0.471,0.845-0.828,1.187
		s-0.775,0.605-1.256,0.791s-0.996,0.278-1.547,0.278c-0.527,0-1.018-0.093-1.467-0.278s-0.84-0.449-1.172-0.791
		s-0.592-0.737-0.777-1.187S613.423,1023.543,613.423,1022.996z"/>
</g>
</svg>
