<?xml version="1.0" encoding="utf-8"?>
<!-- Generator: Adobe Illustrator 16.0.0, SVG Export Plug-In . SVG Version: 6.00 Build 0)  -->
<!DOCTYPE svg PUBLIC "-//W3C//DTD SVG 1.1//EN" "http://www.w3.org/Graphics/SVG/1.1/DTD/svg11.dtd">
<svg version="1.1" id="Layer_1" xmlns="http://www.w3.org/2000/svg" xmlns:xlink="http://www.w3.org/1999/xlink" x="0px" y="0px"
	 width="252.667px" height="279.109px" viewBox="0 0 252.667 279.109" enable-background="new 0 0 252.667 279.109"
	 xml:space="preserve">
<g>
	<path fill="#5B9BA8" d="M130.315,181.492c2.511-0.502,7.599-0.879,12.375-0.879c5.843,0,9.424,0.562,12.502,2.387
		c2.949,1.57,5.088,4.461,5.088,8.293c0,3.771-2.198,7.287-6.975,9.045v0.127c4.836,1.318,8.419,4.963,8.419,10.43
		c0,3.832-1.76,6.848-4.398,8.98c-3.076,2.451-8.228,3.832-16.646,3.832c-4.716,0-8.229-0.312-10.365-0.627V181.492L130.315,181.492
		z M139.798,197.699h3.145c5.023,0,7.727-2.072,7.727-5.213c0-3.205-2.449-4.9-6.785-4.9c-2.072,0-3.268,0.125-4.086,0.252V197.699
		L139.798,197.699z M139.798,216.484c0.945,0.125,2.074,0.125,3.707,0.125c4.336,0,8.168-1.633,8.168-6.094
		c0-4.271-3.832-5.971-8.605-5.971h-3.27V216.484z"/>
	<path fill="#5B9BA8" d="M165.806,202.662c0-4.521-0.125-7.475-0.252-10.113h8.23l0.312,5.654h0.251
		c1.569-4.461,5.341-6.346,8.291-6.346c0.882,0,1.317,0,2.011,0.127v8.98c-0.689-0.125-1.508-0.252-2.574-0.252
		c-3.52,0-5.906,1.887-6.533,4.838c-0.125,0.631-0.188,1.385-0.188,2.139v15.578h-9.549L165.806,202.662L165.806,202.662z"/>
	<path fill="#5B9BA8" d="M197.403,184.006c0,2.641-2.012,4.773-5.149,4.773c-3.019,0-5.026-2.135-4.965-4.773
		c-0.062-2.766,1.946-4.838,5.026-4.838C195.392,179.168,197.341,181.24,197.403,184.006z M187.541,223.268v-30.721h9.549v30.721
		H187.541z"/>
	<path fill="#5B9BA8" d="M209.966,210.955c0.312,3.957,4.207,5.842,8.668,5.842c3.27,0,5.906-0.438,8.482-1.256l1.256,6.471
		c-3.143,1.258-6.975,1.887-11.119,1.887c-10.43,0-16.396-6.031-16.396-15.645c0-7.789,4.834-16.396,15.516-16.396
		c9.928,0,13.693,7.727,13.693,15.328c0,1.635-0.188,3.078-0.312,3.77L209.966,210.955L209.966,210.955z M221.21,204.422
		c0-2.322-1.006-6.219-5.401-6.219c-4.021,0-5.653,3.645-5.905,6.219H221.21z"/>
	<path fill="#5B9BA8" d="M234.718,223.268v-23.686h-4.023v-7.035h4.023v-1.191c0-3.707,1.131-7.789,3.893-10.305
		c2.389-2.262,5.717-3.076,8.482-3.076c2.133,0,3.77,0.252,5.088,0.629l-0.379,7.35c-0.814-0.252-1.82-0.438-3.077-0.438
		c-3.14,0-4.46,2.447-4.46,5.465v1.568h6.156v7.035h-6.094v23.686L234.718,223.268L234.718,223.268z"/>
</g>
<g>
	<g>
		<path fill="#292930" d="M1.208,180.586c2.512-0.502,7.599-0.879,12.375-0.879c5.842,0,9.423,0.564,12.502,2.387
			c2.951,1.57,5.088,4.463,5.088,8.293c0,3.771-2.199,7.287-6.973,9.047v0.127c4.836,1.316,8.418,4.963,8.418,10.428
			c0,3.832-1.759,6.848-4.398,8.98c-3.079,2.451-8.229,3.832-16.647,3.832c-4.713,0-8.23-0.312-10.364-0.627L1.208,180.586
			L1.208,180.586z M10.693,196.793h3.142c5.024,0,7.726-2.07,7.726-5.213c0-3.205-2.451-4.898-6.783-4.898
			c-2.073,0-3.269,0.125-4.084,0.252L10.693,196.793L10.693,196.793z M10.693,215.578c0.942,0.125,2.073,0.125,3.707,0.125
			c4.334,0,8.166-1.633,8.166-6.094c0-4.271-3.832-5.969-8.606-5.969h-3.267V215.578z"/>
		<path fill="#292930" d="M36.698,201.756c0-4.521-0.126-7.475-0.25-10.111h8.229l0.314,5.652h0.252
			c1.57-4.461,5.34-6.346,8.291-6.346c0.881,0,1.32,0,2.009,0.127v8.982c-0.688-0.125-1.505-0.252-2.573-0.252
			c-3.518,0-5.906,1.885-6.533,4.838c-0.127,0.629-0.189,1.383-0.189,2.137v15.578h-9.549L36.698,201.756L36.698,201.756z"/>
		<path fill="#292930" d="M68.297,183.1c0,2.639-2.012,4.771-5.153,4.771c-3.016,0-5.024-2.135-4.962-4.771
			c-0.062-2.768,1.947-4.838,5.026-4.838C66.286,178.26,68.234,180.334,68.297,183.1z M58.434,222.361v-30.719h9.55v30.719H58.434z"
			/>
		<path fill="#292930" d="M80.859,210.049c0.313,3.957,4.209,5.844,8.668,5.844c3.268,0,5.907-0.439,8.481-1.258l1.257,6.473
			c-3.142,1.256-6.974,1.885-11.122,1.885c-10.427,0-16.394-6.031-16.394-15.643c0-7.789,4.836-16.396,15.515-16.396
			c9.927,0,13.695,7.728,13.695,15.328c0,1.635-0.188,3.078-0.313,3.77L80.859,210.049L80.859,210.049z M92.104,203.516
			c0-2.324-1.006-6.221-5.402-6.221c-4.021,0-5.654,3.645-5.907,6.221H92.104z"/>
		<path fill="#292930" d="M105.609,222.361v-23.686h-4.021v-7.033h4.021v-1.193c0-3.707,1.131-7.789,3.896-10.303
			c2.386-2.264,5.717-3.078,8.48-3.078c2.135,0,3.769,0.252,5.087,0.629l-0.377,7.35c-0.815-0.252-1.822-0.438-3.077-0.438
			c-3.142,0-4.462,2.449-4.462,5.465v1.57h6.16v7.033h-6.095v23.686L105.609,222.361L105.609,222.361z"/>
	</g>
</g>
<g>
	<path fill="#231F20" d="M162.103,235.707H90.572c-9.299,0-16.837,8.448-16.837,18.864c0,10.421,7.539,18.866,16.837,18.866h71.531
		c9.287,0,16.829-8.445,16.829-18.866C178.935,244.155,171.393,235.707,162.103,235.707z"/>
	<g>
		<path fill="#00ADEE" d="M118.439,244.866v5.042c0.47-0.8,1.133-1.453,2.018-1.951c0.762-0.424,1.685-0.633,2.77-0.633
			c1.983,0,3.6,0.815,4.858,2.456c1.26,1.637,1.896,3.765,1.896,6.369c0,2.601-0.637,4.725-1.896,6.361
			c-0.634,0.802-1.483,1.376-2.551,1.731c-1.067,0.362-2.139,0.54-3.183,0.54c-2.018,0-3.894-0.523-5.607-1.576
			c-1.722-1.049-2.589-3.066-2.589-6.052v-14.431h2.147c0.59,0,1.091,0.218,1.512,0.631
			C118.234,243.771,118.439,244.275,118.439,244.866z M125.625,255.956c0-1.511-0.309-2.688-0.937-3.529
			c-0.641-0.882-1.497-1.323-2.589-1.323c-1.18,0-2.083,0.417-2.716,1.261c-0.628,0.886-0.945,2.081-0.945,3.592
			c0,1.764,0.301,3.043,0.891,3.844c0.629,0.885,1.51,1.326,2.646,1.326c1.17,0,2.071-0.441,2.713-1.326
			C125.313,258.919,125.625,257.637,125.625,255.956z"/>
		<path fill="#87A683" d="M131.362,264.468v-8.132c0-1.637,0.238-3.015,0.727-4.128c0.48-1.116,1.149-2.012,1.977-2.683
			c0.809-0.624,1.733-1.089,2.811-1.385c1.068-0.293,2.166-0.433,3.303-0.433c0.085,0,0.189,0,0.317,0c0.122,0,0.233,0,0.315,0
			v4.476h-1.452c-1.215,0-2.112,0.29-2.706,0.881c-0.588,0.587-0.884,1.508-0.884,2.767v8.642h-4.406L131.362,264.468
			L131.362,264.468z"/>
		<path fill="#00ADEE" d="M156.55,264.468h-4.342v-9.834v-0.885c0-1.008-0.312-1.738-0.917-2.204
			c-0.609-0.466-1.296-0.689-2.048-0.689c-0.758,0-1.432,0.224-2.021,0.689c-0.583,0.465-0.884,1.196-0.884,2.204v10.719h-4.403
			v-9.834c0-2.856,0.736-4.771,2.236-5.734c1.483-0.975,3.136-1.492,4.944-1.577c0.968,0,1.903,0.103,2.833,0.312
			c0.927,0.211,1.765,0.634,2.52,1.265c0.635-0.55,1.38-0.934,2.24-1.172c0.857-0.223,1.754-0.368,2.676-0.405
			c1.854,0,3.554,0.479,5.105,1.45c1.558,0.967,2.338,2.92,2.338,5.862v9.834h-2.212c-0.624,0-1.146-0.201-1.537-0.606
			c-0.405-0.395-0.606-0.913-0.606-1.54v-8.569c0-1.011-0.299-1.738-0.915-2.205c-0.602-0.465-1.293-0.69-2.041-0.69
			c-0.766,0-1.445,0.225-2.048,0.69c-0.62,0.466-0.92,1.194-0.92,2.205v0.883v9.833L156.55,264.468L156.55,264.468z"/>
	</g>
	<path fill="#FFFFFF" d="M92.563,241.755c7.278,0,13.185,5.902,13.185,13.183c0,7.282-5.905,13.183-13.185,13.183
		c-7.283,0-13.182-5.899-13.182-13.183C79.381,247.657,85.28,241.755,92.563,241.755z"/>
	<g>
		<g>
			<path fill="#5B9BA8" d="M93.573,255.72c0,1.253-0.362,2.289-1.078,3.087c-0.722,0.812-1.635,1.214-2.743,1.214
				c-0.663,0-1.249-0.131-1.74-0.402c-0.499-0.263-0.881-0.658-1.149-1.169v1.317h-1.365v-17.128h1.365v10.364
				c0.289-0.463,0.678-0.828,1.165-1.074c0.483-0.248,1.053-0.372,1.685-0.372c1.132,0,2.062,0.387,2.773,1.156
				C93.202,253.491,93.573,254.496,93.573,255.72z M92.182,255.74c0-0.861-0.24-1.559-0.746-2.089
				c-0.484-0.535-1.137-0.791-1.932-0.791c-0.803,0-1.448,0.25-1.93,0.761c-0.482,0.507-0.718,1.198-0.718,2.069
				c0,0.883,0.26,1.609,0.771,2.171c0.519,0.565,1.156,0.846,1.95,0.846c0.758,0,1.379-0.274,1.864-0.828
				C91.942,257.337,92.182,256.619,92.182,255.74z"/>
			<path fill="#5B9BA8" d="M101.477,251.797l-7.146,16.907h-1.522l4.058-9.326l-3.396-7.582h1.485l2.61,6.003l2.408-6.003
				L101.477,251.797L101.477,251.797z"/>
		</g>
	</g>
</g>
<g>
	<ellipse fill="#292930" cx="77.186" cy="86.265" rx="9.605" ry="4.818"/>
	<path fill="#292930" d="M168.084,86.266c0,2.66-4.299,4.816-9.607,4.816c-5.3,0-9.602-2.158-9.602-4.816
		c0-2.664,4.302-4.821,9.602-4.821C163.786,81.445,168.084,83.603,168.084,86.266z"/>
	<polygon fill="#292930" points="71.76,69.548 71.76,66.018 59.253,66.018 55,66.018 55,69.052 55,76.119 55,80.133 59.253,80.133 
		61.019,80.133 69.856,80.133 71.76,80.133 71.76,72.193 62.057,72.193 62.057,76.603 59.411,76.603 59.411,69.548 	"/>
	<polygon fill="#292930" points="180.258,69.548 180.258,72.193 165.262,72.193 165.262,80.133 180.258,80.133 180.258,83.66 
		186.432,83.66 186.432,69.548 	"/>
	<g>
		<g>
			<path fill="#292930" d="M114.913,86.901h-10.617c-0.071,0,4.442,5.085,10.617,6.322V86.901z"/>
			<polygon fill="#292930" points="114.913,82.493 94.347,82.493 92.833,86.02 114.913,86.02 			"/>
			<path fill="#292930" d="M120.206,93.068c5.291-1.415,10.02-6.167,9.953-6.167h-9.953V93.068z"/>
			<polygon fill="#292930" points="120.206,82.493 120.206,86.02 142.314,86.02 141.189,82.493 			"/>
		</g>
	</g>
	<g>
		<g>
			<path fill="#292930" d="M175.366,109.836c-0.023-7.938-0.116-26.793-0.116-26.793l-6.546,0.176
				c0.941,0.847,1.484,1.914,1.484,2.954c0,3.242-5.24,5.92-11.709,5.92c-6.462,0-11.702-3.046-11.702-6.291
				c0-1.046,0.554-1.545,1.513-3.309h-3.749c0.272,1.765,0.43,2.392,0.43,3.402c0,9.546-12.197,17.504-27.247,17.504
				c-15.049,0-27.245-7.627-27.245-17.172c0-1.035,0.158-1.991,0.444-2.975l-3.638,0.023c1.017,0.868,1.61,1.892,1.61,2.976
				c0,3.245-5.244,5.88-11.709,5.88c-6.464,0-11.705-2.627-11.705-5.872c0-1.091,0.606-2.108,1.642-2.987l-7.806-0.38
				c0,0,0.025,19.887,0.029,26.943H175.366z"/>
			<polygon fill="#292930" points="45.117,150.412 48.248,165.408 190.145,165.408 193.364,150.412 			"/>
			<path fill="#292930" d="M175.776,113.565c0-0.354,0-0.2,0-1.965H59.324c-1.123,19.406-14.207,37.928-14.207,37.928h147.159
				C192.276,149.53,177.541,130.962,175.776,113.565z M152.578,115.28c2.623,0,4.743,1.248,4.743,2.781
				c0,1.539-2.12,2.783-4.743,2.783c-2.621,0-4.75-1.244-4.75-2.783C147.828,116.528,149.957,115.28,152.578,115.28z
				 M152.212,125.302c0,1.537-2.123,2.784-4.746,2.784c-2.617,0-4.744-1.247-4.744-2.784c0-1.535,2.127-2.779,4.744-2.779
				C150.089,122.521,152.212,123.766,152.212,125.302z M145.413,132.542c0,1.537-2.129,2.783-4.75,2.783
				c-2.624,0-4.746-1.246-4.746-2.783c0-1.535,2.122-2.782,4.746-2.782C143.284,129.76,145.413,131.007,145.413,132.542z
				 M140.663,115.28c2.621,0,4.75,1.248,4.75,2.781c0,1.539-2.129,2.783-4.75,2.783c-2.624,0-4.746-1.244-4.746-2.783
				C135.917,116.528,138.043,115.28,140.663,115.28z M140.301,125.302c0,1.537-2.12,2.784-4.748,2.784
				c-2.621,0-4.748-1.247-4.748-2.784c0-1.535,2.127-2.779,4.748-2.779C138.181,122.521,140.301,123.766,140.301,125.302z
				 M133.495,132.542c0,1.537-2.122,2.783-4.745,2.783c-2.622,0-4.746-1.246-4.746-2.783c0-1.535,2.125-2.782,4.746-2.782
				C131.373,129.76,133.495,131.007,133.495,132.542z M128.75,115.28c2.623,0,4.748,1.248,4.748,2.781
				c0,1.539-2.125,2.783-4.748,2.783c-2.622,0-4.743-1.244-4.743-2.783C124.003,116.528,126.128,115.28,128.75,115.28z
				 M128.395,125.302c0,1.537-2.126,2.784-4.749,2.784c-2.622,0-4.747-1.247-4.747-2.784c0-1.535,2.125-2.779,4.747-2.779
				C126.268,122.521,128.395,123.766,128.395,125.302z M121.585,132.542c0,1.537-2.127,2.783-4.746,2.783
				c-2.623,0-4.749-1.246-4.749-2.783c0-1.535,2.126-2.782,4.749-2.782C119.458,129.76,121.585,131.007,121.585,132.542z
				 M116.838,115.28c2.619,0,4.745,1.248,4.745,2.781c0,1.539-2.126,2.783-4.745,2.783c-2.623,0-4.749-1.244-4.749-2.783
				C112.089,116.528,114.214,115.28,116.838,115.28z M116.478,125.302c0,1.537-2.125,2.784-4.745,2.784
				c-2.622,0-4.749-1.247-4.749-2.784c0-1.535,2.126-2.779,4.749-2.779C114.353,122.521,116.478,123.766,116.478,125.302z
				 M109.672,132.542c0,1.537-2.126,2.783-4.748,2.783c-2.621,0-4.747-1.246-4.747-2.783c0-1.535,2.126-2.782,4.747-2.782
				C107.546,129.76,109.672,131.007,109.672,132.542z M104.923,115.28c2.622,0,4.748,1.248,4.748,2.781
				c0,1.539-2.126,2.783-4.748,2.783c-2.62,0-4.747-1.244-4.747-2.783C100.176,116.528,102.303,115.28,104.923,115.28z
				 M104.567,125.302c0,1.537-2.126,2.784-4.746,2.784c-2.624,0-4.749-1.247-4.749-2.784c0-1.535,2.125-2.779,4.749-2.779
				C102.441,122.521,104.567,123.766,104.567,125.302z M97.757,132.542c0,1.537-2.127,2.783-4.746,2.783
				c-2.621,0-4.748-1.246-4.748-2.783c0-1.535,2.128-2.782,4.748-2.782C95.63,129.76,97.757,131.007,97.757,132.542z M93.011,115.28
				c2.619,0,4.746,1.248,4.746,2.781c0,1.539-2.127,2.783-4.746,2.783c-2.621,0-4.748-1.244-4.748-2.783
				C88.264,116.528,90.391,115.28,93.011,115.28z M92.654,125.302c0,1.537-2.123,2.784-4.741,2.784
				c-2.629,0-4.757-1.247-4.757-2.784c0-1.535,2.128-2.779,4.757-2.779C90.53,122.521,92.654,123.766,92.654,125.302z
				 M81.098,115.28c2.621,0,4.746,1.248,4.746,2.781c0,1.539-2.125,2.783-4.746,2.783c-2.623,0-4.749-1.244-4.749-2.783
				C76.35,116.528,78.476,115.28,81.098,115.28z M69.189,115.28c2.621,0,4.74,1.248,4.74,2.781c0,1.539-2.119,2.783-4.74,2.783
				c-2.623,0-4.75-1.244-4.75-2.783C64.439,116.528,66.566,115.28,69.189,115.28z M69.189,135.325c-2.623,0-4.75-1.245-4.75-2.783
				c0-1.534,2.127-2.782,4.75-2.782c2.621,0,4.74,1.248,4.74,2.782C73.929,134.079,71.808,135.325,69.189,135.325z M71.246,125.302
				c0-1.535,2.126-2.779,4.75-2.779c2.621,0,4.745,1.244,4.745,2.779c0,1.537-2.124,2.784-4.745,2.784
				C73.373,128.086,71.246,126.839,71.246,125.302z M76.35,132.542c0-1.535,2.126-2.782,4.75-2.782c2.62,0,4.745,1.247,4.745,2.782
				c0,1.537-2.125,2.783-4.745,2.783C78.476,135.325,76.35,134.079,76.35,132.542z M153.201,144.238H79.064
				c-2.003,0-0.805-1.149-0.805-2.647c0-1.497,1.62-2.645,3.616-2.645h68.917c1.993,0,3.617,1.147,3.617,2.645
				C154.408,143.089,155.203,144.238,153.201,144.238z M152.578,135.325c-2.621,0-4.75-1.245-4.75-2.783
				c0-1.534,2.129-2.782,4.75-2.782c2.623,0,4.743,1.248,4.743,2.782C157.321,134.079,155.201,135.325,152.578,135.325z
				 M154.633,125.302c0-1.535,2.129-2.779,4.753-2.779c2.621,0,4.741,1.244,4.741,2.779c0,1.537-2.12,2.784-4.741,2.784
				C156.762,128.085,154.633,126.839,154.633,125.302z M164.491,135.325c-2.623,0-4.748-1.245-4.748-2.783
				c0-1.534,2.125-2.782,4.748-2.782c2.621,0,4.743,1.248,4.743,2.782C169.234,134.079,167.112,135.325,164.491,135.325z
				 M164.491,120.844c-2.623,0-4.748-1.244-4.748-2.781c0-1.535,2.125-2.782,4.748-2.782c2.621,0,4.743,1.247,4.743,2.782
				C169.234,119.6,167.112,120.844,164.491,120.844z"/>
		</g>
	</g>
	<g>
		<polygon fill="#5B9BA8" points="161.664,28.367 144.774,11.924 75.218,11.924 75.218,79.844 161.664,79.844 		"/>
		<rect x="88.45" y="23.391" fill="#FFFFFF" width="24.698" height="2.646"/>
		<rect x="88.45" y="30.448" fill="#FFFFFF" width="40.576" height="2.646"/>
		<rect x="88.45" y="38.388" fill="#FFFFFF" width="16.76" height="2.646"/>
		<rect x="88.45" y="45.445" fill="#FFFFFF" width="21.17" height="2.646"/>
		<rect x="88.45" y="52.502" fill="#FFFFFF" width="59.983" height="2.646"/>
		<rect x="88.45" y="67.497" fill="#FFFFFF" width="59.983" height="2.646"/>
		<rect x="88.45" y="60.44" fill="#FFFFFF" width="59.983" height="2.646"/>
		<polygon fill="#4A7E89" points="161.537,28.684 144.906,28.684 144.906,12.068 		"/>
	</g>
</g>
</svg>
